<?xml version="1.0" encoding="UTF-8"?>
<svg width="700pt" height="700pt" version="1.1" viewBox="0 0 700 700" xmlns="http://www.w3.org/2000/svg">
 <g>
  <path d="m379.7 317.44c-3.7305-0.015625-7.3164 1.4609-9.9531 4.0977-2.6406 2.6406-4.1172 6.2227-4.1016 9.957 0.011719 3.7148 1.5 7.2695 4.1367 9.8867 2.6367 2.6172 6.2031 4.0781 9.918 4.0625 26.742 0 48.055 21.359 48.055 47.953s-21.312 47.848-48.055 47.848c-26.742 0-48.055-21.254-48.055-47.848 0.015625-3.7305-1.4609-7.3164-4.1016-9.9531-2.6367-2.6406-6.2227-4.1172-9.9531-4.1016-3.7148 0.011718-7.2734 1.5-9.8906 4.1367-2.6172 2.6367-4.0781 6.2031-4.0625 9.918 0 41.773 34.234 75.855 76.062 75.855s76.062-34.086 76.062-75.855c0-41.773-34.234-75.961-76.062-75.961z"/>
  <path d="m153.99 317.44c-3.7148 0.011719-7.2734 1.5-9.8906 4.1367-2.6172 2.6367-4.0781 6.2031-4.0625 9.918 0.027344 7.6914 6.2578 13.926 13.953 13.949h225.71-0.003906c7.6953-0.023437 13.926-6.2578 13.953-13.949 0.015625-3.7148-1.4492-7.2812-4.0664-9.918-2.6133-2.6367-6.1719-4.125-9.8867-4.1367z"/>
  <path d="m459.89 92.504c-55.324 0-100.14 46.238-100.14 102.41 0.011719 3.7148 1.5 7.2695 4.1367 9.8867 2.6367 2.6172 6.2031 4.082 9.918 4.0664 7.6953-0.027344 13.926-6.2578 13.953-13.953 0-41.43 32.34-74.41 72.137-74.41 39.793 0 72.137 32.98 72.137 74.41 0 41.43-32.34 74.305-72.137 74.305h-0.003907c-3.7305-0.011718-7.3125 1.4648-9.9531 4.1016-2.6367 2.6406-4.1133 6.2227-4.1016 9.957 0.015625 3.7109 1.5039 7.2695 4.1406 9.8867 2.6328 2.6172 6.2031 4.0781 9.9141 4.0625 55.324 0 100.14-46.137 100.14-102.31s-44.82-102.42-100.14-102.41z"/>
  <path d="m153.99 269.22c-3.7148 0.015625-7.2734 1.5039-9.8906 4.1406-2.6172 2.6328-4.0781 6.2031-4.0625 9.918 0.027344 7.6914 6.2578 13.922 13.953 13.949h305.91-0.003907c7.6953-0.023438 13.926-6.2578 13.953-13.949 0.015625-3.7148-1.4453-7.2852-4.0625-9.9219-2.6172-2.6328-6.1758-4.1211-9.8906-4.1367z"/>
  <path d="m153.99 221.02c-3.7148 0.011719-7.2734 1.5-9.8906 4.1367-2.6133 2.6328-4.0781 6.2031-4.0625 9.918 0.027344 7.6914 6.2578 13.922 13.953 13.949h114.71c7.6914-0.027343 13.922-6.2578 13.949-13.949 0.015625-3.7148-1.4453-7.2852-4.0625-9.918-2.6172-2.6367-6.1758-4.125-9.8867-4.1367z"/>
  <path d="m268.71 123.04c-32.648 0-60.156 25.18-62.938 57.668-0.33203 3.7031 0.82031 7.3828 3.207 10.23 2.3828 2.8516 5.8008 4.6367 9.5039 4.9648 3.7148 0.32812 7.4102-0.83984 10.262-3.2461 2.8555-2.4062 4.6289-5.8516 4.9297-9.5703 1.5625-18.199 16.621-32.039 35.035-32.039 19.613 0 35.137 15.578 35.137 35.035s-15.523 34.93-35.137 34.93v0.003906c-3.7344-0.015625-7.3164 1.4609-9.957 4.0977-2.6367 2.6406-4.1133 6.2227-4.0977 9.957 0.011718 3.7109 1.5 7.2695 4.1367 9.8867 2.6328 2.6172 6.2031 4.0781 9.918 4.0625 34.688 0 63.145-28.293 63.145-62.938s-28.457-63.043-63.145-63.043z"/>
 </g>
</svg>
