<svg width="441" height="98" viewBox="0 0 441 98" fill="none" xmlns="http://www.w3.org/2000/svg">
<path d="M69.04 80.6C69.6267 80.6 70.0533 80.7067 70.32 80.92C70.5867 81.1867 70.72 81.4533 70.72 81.72C70.72 82.1467 70.5333 82.44 70.16 82.6C69.84 82.76 69.4667 82.84 69.04 82.84C63.2267 82.84 58.7467 80.5467 55.6 75.96C52.9867 72.1733 51.28 67.08 50.48 60.68C50.16 60.7333 49.84 60.7867 49.52 60.84C49.2533 60.84 48.96 60.84 48.64 60.84C47.4667 60.84 46.24 60.7067 44.96 60.44C43.7333 60.12 42.4533 59.72 41.12 59.24C40.8 60.04 40.48 60.84 40.16 61.64C39.84 62.3867 39.4933 63.1333 39.12 63.88C34.5867 73.96 30.2667 81.8267 26.16 87.48C21.2 94.36 16.6933 97.8 12.64 97.8C8.53333 97.8 5.30667 96.3867 2.96 93.56C0.986667 91.1067 0 87.9067 0 83.96C0 81.4533 0.4 78.9467 1.2 76.44C2.05333 73.9333 3.2 71.6667 4.64 69.64C6.29333 67.4 8.21333 65.6667 10.4 64.44C12.5867 63.2133 14.88 62.6 17.28 62.6C17.7067 62.6 17.92 62.8133 17.92 63.24C17.92 63.6133 17.7067 63.8 17.28 63.8C13.92 63.8 11.0133 65.9867 8.56 70.36C7.49333 72.28 6.64 74.4133 6 76.76C5.41333 79.16 5.12 81.5333 5.12 83.88C5.12 87.1333 5.73333 89.7733 6.96 91.8C8.29333 93.88 10.2133 94.92 12.72 94.92C15.8133 94.92 19.12 92.92 22.64 88.92C23.6 87.8 24.6667 86.3867 25.84 84.68C27.0133 82.9733 28.2667 80.8933 29.6 78.44C30.9867 75.9867 32.4267 73.1067 33.92 69.8C35.4667 66.4933 37.0667 62.68 38.72 58.36C37.7067 57.9333 36.6933 57.5067 35.68 57.08C34.6667 56.6 33.68 56.1467 32.72 55.72C31.3333 55.08 29.9733 54.4667 28.64 53.88C27.36 53.2933 26.16 52.84 25.04 52.52C23.9733 52.1467 23.0133 51.96 22.16 51.96C21.3067 51.9067 20.6667 52.0933 20.24 52.52C19.92 52.84 19.6267 52.84 19.36 52.52C19.04 52.3067 19.04 52.04 19.36 51.72C20.16 50.92 21.1467 50.4933 22.32 50.44C23.5467 50.3333 24.88 50.4667 26.32 50.84C27.8133 51.16 29.3867 51.6667 31.04 52.36C32.7467 53.0533 34.48 53.8 36.24 54.6L39.6 56.12C40.3467 54.0933 41.0933 51.9867 41.84 49.8C42.5867 47.6133 43.3333 45.2933 44.08 42.84C45.52 38.4133 46.7733 34.28 47.84 30.44C48.9067 26.6 49.7867 23.2133 50.48 20.28C51.2267 17.3467 51.7867 14.9467 52.16 13.08C52.5867 11.16 52.8 9.93333 52.8 9.4L51.76 9.88C50.1067 10.7333 48.24 11.56 46.16 12.36C44.08 13.16 41.6533 13.56 38.88 13.56C36.9067 13.56 35.3067 13 34.08 11.88C33.0667 10.76 32.56 9.48 32.56 8.04C32.56 7.18666 32.72 6.30666 33.04 5.4C33.36 4.49333 33.7867 3.69333 34.32 3C34.9067 2.30666 35.5733 1.74666 36.32 1.32C37.12 0.839998 37.9733 0.599998 38.88 0.599998C39.2533 0.599998 39.44 0.813331 39.44 1.24C39.44 1.61333 39.2533 1.8 38.88 1.8C38.4533 1.8 38 1.98666 37.52 2.36C37.04 2.73333 36.5867 3.21333 36.16 3.79999C35.7333 4.44 35.36 5.13333 35.04 5.88C34.7733 6.57333 34.64 7.24 34.64 7.88C34.64 8.84 34.96 9.58666 35.6 10.12C36.2933 10.76 37.4667 11.08 39.12 11.08C41.7867 11.08 44.1067 10.7867 46.08 10.2C48.0533 9.56 49.8133 8.94666 51.36 8.36C52.4267 7.93333 53.44 7.58666 54.4 7.32C55.36 7 56.2933 6.84 57.2 6.84C58.3733 6.84 59.2533 7.24 59.84 8.04C60.4267 8.73333 60.72 9.53333 60.72 10.44C60.72 11.3467 60.6667 12.0133 60.56 12.44C60.2933 13.4 59.92 14.9733 59.44 17.16C58.96 19.2933 58.4267 21.8 57.84 24.68C57.3067 27.56 56.7733 30.7067 56.24 34.12C55.76 37.5333 55.36 41.0267 55.04 44.6C54.7733 48.12 54.64 51.3733 54.64 54.36C54.64 57.3467 54.8 60.12 55.12 62.68C55.8133 68.6 57.3333 73.08 59.68 76.12C62.0267 79.1067 65.1467 80.6 69.04 80.6ZM51.12 33.24C49.8933 36.92 48.5067 40.7867 46.96 44.84C45.4133 48.84 43.7867 52.92 42.08 57.08C43.6267 57.6667 45.0933 58.1733 46.48 58.6C47.8667 58.9733 49.12 59.1333 50.24 59.08C49.6533 53.0533 49.7333 46.0933 50.48 38.2C50.5867 37.3467 50.6933 36.52 50.8 35.72C50.9067 34.92 51.0133 34.0933 51.12 33.24ZM105.868 39.16C106.135 39.32 106.215 39.56 106.108 39.88C105.948 40.36 105.441 41.2133 104.588 42.44C103.735 43.6133 102.508 45.32 100.908 47.56C99.6815 49.3733 98.3215 51.4 96.8281 53.64C95.3881 55.88 93.9215 58.2 92.4281 60.6L91.8681 68.44C90.3748 85.0267 87.6015 93.32 83.5481 93.32C80.5081 93.32 78.5081 92.36 77.5481 90.44C75.7881 87.0267 77.8148 80.3867 83.6281 70.52C84.2148 69.6133 84.7748 68.68 85.3081 67.72C85.8948 66.76 86.5081 65.8267 87.1481 64.92C87.3081 61.9333 87.3881 58.9733 87.3881 56.04C87.4415 53.1067 87.4948 50.4133 87.5481 47.96C87.1215 49.6133 86.6148 51.0533 86.0281 52.28C85.4948 53.4533 84.9615 54.44 84.4281 55.24C83.2015 57.1067 81.8148 58.5467 80.2681 59.56C78.7748 60.52 77.2548 61 75.7081 61C73.4148 61 71.6548 60.1467 70.4281 58.44C69.8415 57.6933 69.4148 56.84 69.1481 55.88C68.9348 54.8667 68.8281 53.7467 68.8281 52.52C68.8281 50.5467 69.1481 48.5467 69.7881 46.52C70.4281 44.44 71.3081 42.52 72.4281 40.76C73.7615 38.7867 75.2548 37.2667 76.9081 36.2C78.5615 35.1333 80.2948 34.6 82.1081 34.6C84.1881 34.6 85.8148 35.2667 86.9881 36.6C87.2548 36.9733 87.4681 37.3467 87.6281 37.72L87.7081 37.64C87.7615 37.5867 87.8148 37.56 87.8681 37.56H88.1081C88.3748 37.56 88.7481 37.5867 89.2281 37.64C89.7081 37.6933 90.2148 37.7733 90.7481 37.88C91.1748 37.9867 91.6281 38.1733 92.1081 38.44C92.6415 38.7067 92.9081 39.0533 92.9081 39.48V39.8C92.9081 42.7867 92.8815 45.72 92.8281 48.6C92.7748 51.4267 92.6948 54.2 92.5881 56.92C93.8148 55.2133 94.9881 53.56 96.1081 51.96C97.2815 50.3067 98.4015 48.7867 99.4681 47.4L99.8681 46.84C101.415 44.6 102.641 42.8133 103.548 41.48C104.508 40.0933 105.015 39.3733 105.068 39.32C105.228 39.0533 105.495 39 105.868 39.16ZM74.9081 56.76C75.3881 57.56 76.0015 57.96 76.7481 57.96C78.2948 57.96 79.6281 57.5067 80.7481 56.6C81.8681 55.6933 82.8281 54.5467 83.6281 53.16C84.4281 51.72 85.0681 50.1733 85.5481 48.52C86.0815 46.8667 86.4815 45.32 86.7481 43.88C86.8548 41.3733 86.5081 39.5867 85.7081 38.52C85.2281 37.9333 84.5881 37.5867 83.7881 37.48C83.6815 37.48 83.6015 37.48 83.5481 37.48C83.4948 37.4267 83.4148 37.4 83.3081 37.4C81.9215 37.4 80.7215 37.8533 79.7081 38.76C78.6948 39.6133 77.8948 40.4933 77.3081 41.4C76.5081 42.6267 75.8681 43.9867 75.3881 45.48C74.9081 46.9733 74.5615 48.44 74.3481 49.88C74.1348 51.2667 74.0815 52.5733 74.1881 53.8C74.2948 55.0267 74.5348 56.0133 74.9081 56.76ZM82.4281 89.08C82.8015 88.7067 83.1748 88.12 83.5481 87.32C83.9748 86.52 84.3748 85.3733 84.7481 83.88C85.1748 82.3867 85.5481 80.52 85.8681 78.28C86.2415 76.04 86.5615 73.2667 86.8281 69.96C84.9081 73.32 83.4148 76.12 82.3481 78.36C81.3348 80.6533 80.5881 82.52 80.1081 83.96C79.6815 85.4533 79.4415 86.5733 79.3881 87.32C79.3881 88.12 79.4681 88.68 79.6281 89C79.7348 89.16 79.8681 89.32 80.0281 89.48C80.2415 89.64 80.5881 89.72 81.0681 89.72C81.5481 89.72 82.0015 89.5067 82.4281 89.08ZM121.276 39.88C121.17 40.1467 121.063 40.4133 120.956 40.68C120.903 40.9467 120.823 41.24 120.716 41.56C120.183 42.8933 119.41 44.84 118.396 47.4C117.436 49.96 116.343 52.6267 115.116 55.4C114.156 57.6933 113.223 59.7467 112.316 61.56C111.41 63.32 110.556 64.84 109.756 66.12C107.676 69.5333 105.89 71.24 104.396 71.24H104.316C101.543 70.5467 100.156 67.1333 100.156 61C100.156 58.44 100.316 55.7733 100.636 53C101.01 50.2267 101.383 47.64 101.756 45.24C102.023 43.6933 102.236 42.3067 102.396 41.08C102.556 39.8 102.636 38.8133 102.636 38.12C102.636 37.7467 102.85 37.56 103.276 37.56C104.183 37.6133 104.983 37.72 105.676 37.88C106.263 37.9867 106.796 38.1733 107.276 38.44C107.81 38.7067 108.076 39.0533 108.076 39.48C108.076 40.12 107.996 41.16 107.836 42.6C107.676 43.9867 107.463 45.6133 107.196 47.48C106.93 49.5067 106.663 51.64 106.396 53.88C106.13 56.0667 105.943 58.12 105.836 60.04C105.73 61.48 105.65 62.6533 105.596 63.56C105.596 64.4133 105.623 65.1067 105.676 65.64C105.73 66.12 105.783 66.4667 105.836 66.68C105.89 66.8933 105.943 67.0267 105.996 67.08C106.05 67.08 106.21 66.9733 106.476 66.76C106.796 66.5467 107.196 66.0933 107.676 65.4C108.21 64.7067 108.876 63.6667 109.676 62.28C110.53 60.8933 111.543 59.0267 112.716 56.68C113.943 54.1733 115.17 51.5333 116.396 48.76C117.676 45.9333 118.743 43.4 119.596 41.16C119.703 40.8933 119.783 40.68 119.836 40.52C119.89 40.3067 119.943 40.12 119.996 39.96C120.05 39.7467 120.103 39.5867 120.156 39.48C120.263 39.0533 120.53 38.9467 120.956 39.16C121.33 39.2667 121.436 39.5067 121.276 39.88ZM108.476 28.04C107.356 28.04 106.396 27.64 105.596 26.84C104.85 26.04 104.476 25.1067 104.476 24.04C104.476 22.92 104.85 21.96 105.596 21.16C106.396 20.36 107.356 19.96 108.476 19.96C109.596 19.96 110.53 20.36 111.276 21.16C112.076 21.96 112.476 22.92 112.476 24.04C112.476 25.1067 112.076 26.04 111.276 26.84C110.53 27.64 109.596 28.04 108.476 28.04ZM143.071 39.16C143.444 39.2667 143.577 39.5067 143.471 39.88L142.831 41.56C142.351 42.8933 141.604 44.84 140.591 47.4C139.631 49.96 138.537 52.6267 137.311 55.4C136.351 57.6933 135.417 59.7467 134.511 61.56C133.604 63.32 132.751 64.84 131.951 66.12C129.871 69.5333 128.084 71.24 126.591 71.24C123.497 71.24 121.097 68.5733 119.391 63.24C118.644 61 118.084 58.36 117.711 55.32C117.337 52.28 117.151 49 117.151 45.48C117.151 40.68 117.497 36.0133 118.191 31.48C118.884 26.9467 119.844 22.8933 121.071 19.32C122.564 15.0533 124.324 11.8267 126.351 9.64C128.377 7.45333 130.671 6.35999 133.231 6.35999C134.831 6.35999 136.057 7.02666 136.911 8.36C137.604 9.64 137.951 11.2133 137.951 13.08C137.951 15.16 137.577 17.48 136.831 20.04C136.084 22.6 135.071 25 133.791 27.24C132.564 29.4267 131.097 31.2933 129.391 32.84C127.737 34.3333 126.004 35.08 124.191 35.08C123.817 35.08 123.631 34.8933 123.631 34.52C123.631 34.0933 123.817 33.88 124.191 33.88C125.311 33.88 126.484 33.2133 127.711 31.88C128.991 30.4933 130.244 28.5467 131.471 26.04C132.537 23.7467 133.391 21.3733 134.031 18.92C134.724 16.4133 135.071 14.28 135.071 12.52C135.071 11.2933 134.911 10.36 134.591 9.72C134.271 9.13333 133.844 8.84 133.311 8.84C131.764 8.84 130.297 9.88 128.911 11.96C127.577 13.9867 126.377 16.92 125.311 20.76C124.404 24.1733 123.684 28.0667 123.151 32.44C122.617 36.8133 122.351 41.1867 122.351 45.56C122.351 48.76 122.484 51.6933 122.751 54.36C123.017 57.0267 123.391 59.2933 123.871 61.16C124.404 63.0267 125.017 64.4933 125.711 65.56C126.457 66.5733 127.257 67.08 128.111 67.08C128.111 67.08 128.217 67.0267 128.431 66.92C128.697 66.8133 129.071 66.44 129.551 65.8C130.084 65.1067 130.777 64.0667 131.631 62.68C132.537 61.24 133.631 59.24 134.911 56.68C136.137 54.1733 137.364 51.5333 138.591 48.76C139.817 45.9333 140.857 43.4 141.711 41.16C141.817 40.8933 141.897 40.68 141.951 40.52C142.057 40.3067 142.137 40.12 142.191 39.96C142.244 39.7467 142.297 39.5867 142.351 39.48C142.457 39.0533 142.697 38.9467 143.071 39.16ZM167.018 39.16C167.391 39.2667 167.525 39.5067 167.418 39.88C167.418 39.88 167.285 40.28 167.018 41.08C166.751 41.8267 166.351 42.84 165.818 44.12C165.338 45.3467 164.751 46.76 164.058 48.36C163.418 49.9067 162.698 51.5067 161.898 53.16C157.471 62.2267 153.445 66.76 149.818 66.76C145.765 66.76 142.618 65.2667 140.378 62.28C138.511 59.7733 137.578 56.4667 137.578 52.36C137.578 50.1733 137.845 47.9867 138.378 45.8C138.965 43.56 139.765 41.56 140.778 39.8C141.845 38.04 143.098 36.6 144.538 35.48C145.978 34.36 147.551 33.8 149.258 33.8C151.178 33.8 152.618 34.5467 153.578 36.04C154.538 37.32 155.018 38.9733 155.018 41C155.018 44.0933 154.058 46.84 152.138 49.24C151.391 50.2 150.298 51.1333 148.858 52.04C147.471 52.9467 145.658 53.4 143.418 53.4C143.045 53.4 142.858 53.1867 142.858 52.76C142.858 52.3867 143.045 52.2 143.418 52.2C144.378 52.2 145.365 51.7733 146.378 50.92C147.445 50.0133 148.431 48.76 149.338 47.16C150.138 45.7733 150.778 44.3067 151.258 42.76C151.791 41.16 152.058 39.8 152.058 38.68C152.058 38.04 151.951 37.5067 151.738 37.08C151.578 36.8133 151.338 36.68 151.018 36.68C148.671 36.68 146.645 38.2267 144.938 41.32C144.245 42.5467 143.685 43.96 143.258 45.56C142.831 47.16 142.565 48.7867 142.458 50.44C142.351 52.04 142.431 53.64 142.698 55.24C143.018 56.7867 143.551 58.1467 144.298 59.32C145.791 61.6667 148.111 62.76 151.258 62.6H151.338C152.245 62.6 153.391 61.88 154.778 60.44C156.218 59 157.711 56.9733 159.258 54.36C160.591 52.12 161.871 49.6933 163.098 47.08C164.378 44.4133 165.445 41.88 166.298 39.48C166.405 39.0533 166.645 38.9467 167.018 39.16ZM246.54 80.6C247.127 80.6 247.553 80.7067 247.82 80.92C248.087 81.1867 248.22 81.4533 248.22 81.72C248.22 82.1467 248.033 82.44 247.66 82.6C247.34 82.76 246.967 82.84 246.54 82.84C240.727 82.84 236.247 80.5467 233.1 75.96C230.487 72.1733 228.78 67.08 227.98 60.68C227.66 60.7333 227.34 60.7867 227.02 60.84C226.753 60.84 226.46 60.84 226.14 60.84C224.967 60.84 223.74 60.7067 222.46 60.44C221.233 60.12 219.953 59.72 218.62 59.24C218.3 60.04 217.98 60.84 217.66 61.64C217.34 62.3867 216.993 63.1333 216.62 63.88C212.087 73.96 207.767 81.8267 203.66 87.48C198.7 94.36 194.193 97.8 190.14 97.8C186.033 97.8 182.807 96.3867 180.46 93.56C178.487 91.1067 177.5 87.9067 177.5 83.96C177.5 81.4533 177.9 78.9467 178.7 76.44C179.553 73.9333 180.7 71.6667 182.14 69.64C183.793 67.4 185.713 65.6667 187.9 64.44C190.087 63.2133 192.38 62.6 194.78 62.6C195.207 62.6 195.42 62.8133 195.42 63.24C195.42 63.6133 195.207 63.8 194.78 63.8C191.42 63.8 188.513 65.9867 186.06 70.36C184.993 72.28 184.14 74.4133 183.5 76.76C182.913 79.16 182.62 81.5333 182.62 83.88C182.62 87.1333 183.233 89.7733 184.46 91.8C185.793 93.88 187.713 94.92 190.22 94.92C193.313 94.92 196.62 92.92 200.14 88.92C201.1 87.8 202.167 86.3867 203.34 84.68C204.513 82.9733 205.767 80.8933 207.1 78.44C208.487 75.9867 209.927 73.1067 211.42 69.8C212.967 66.4933 214.567 62.68 216.22 58.36C215.207 57.9333 214.193 57.5067 213.18 57.08C212.167 56.6 211.18 56.1467 210.22 55.72C208.833 55.08 207.473 54.4667 206.14 53.88C204.86 53.2933 203.66 52.84 202.54 52.52C201.473 52.1467 200.513 51.96 199.66 51.96C198.807 51.9067 198.167 52.0933 197.74 52.52C197.42 52.84 197.127 52.84 196.86 52.52C196.54 52.3067 196.54 52.04 196.86 51.72C197.66 50.92 198.647 50.4933 199.82 50.44C201.047 50.3333 202.38 50.4667 203.82 50.84C205.313 51.16 206.887 51.6667 208.54 52.36C210.247 53.0533 211.98 53.8 213.74 54.6L217.1 56.12C217.847 54.0933 218.593 51.9867 219.34 49.8C220.087 47.6133 220.833 45.2933 221.58 42.84C223.02 38.4133 224.273 34.28 225.34 30.44C226.407 26.6 227.287 23.2133 227.98 20.28C228.727 17.3467 229.287 14.9467 229.66 13.08C230.087 11.16 230.3 9.93333 230.3 9.4L229.26 9.88C227.607 10.7333 225.74 11.56 223.66 12.36C221.58 13.16 219.153 13.56 216.38 13.56C214.407 13.56 212.807 13 211.58 11.88C210.567 10.76 210.06 9.48 210.06 8.04C210.06 7.18666 210.22 6.30666 210.54 5.4C210.86 4.49333 211.287 3.69333 211.82 3C212.407 2.30666 213.073 1.74666 213.82 1.32C214.62 0.839998 215.473 0.599998 216.38 0.599998C216.753 0.599998 216.94 0.813331 216.94 1.24C216.94 1.61333 216.753 1.8 216.38 1.8C215.953 1.8 215.5 1.98666 215.02 2.36C214.54 2.73333 214.087 3.21333 213.66 3.79999C213.233 4.44 212.86 5.13333 212.54 5.88C212.273 6.57333 212.14 7.24 212.14 7.88C212.14 8.84 212.46 9.58666 213.1 10.12C213.793 10.76 214.967 11.08 216.62 11.08C219.287 11.08 221.607 10.7867 223.58 10.2C225.553 9.56 227.313 8.94666 228.86 8.36C229.927 7.93333 230.94 7.58666 231.9 7.32C232.86 7 233.793 6.84 234.7 6.84C235.873 6.84 236.753 7.24 237.34 8.04C237.927 8.73333 238.22 9.53333 238.22 10.44C238.22 11.3467 238.167 12.0133 238.06 12.44C237.793 13.4 237.42 14.9733 236.94 17.16C236.46 19.2933 235.927 21.8 235.34 24.68C234.807 27.56 234.273 30.7067 233.74 34.12C233.26 37.5333 232.86 41.0267 232.54 44.6C232.273 48.12 232.14 51.3733 232.14 54.36C232.14 57.3467 232.3 60.12 232.62 62.68C233.313 68.6 234.833 73.08 237.18 76.12C239.527 79.1067 242.647 80.6 246.54 80.6ZM228.62 33.24C227.393 36.92 226.007 40.7867 224.46 44.84C222.913 48.84 221.287 52.92 219.58 57.08C221.127 57.6667 222.593 58.1733 223.98 58.6C225.367 58.9733 226.62 59.1333 227.74 59.08C227.153 53.0533 227.233 46.0933 227.98 38.2C228.087 37.3467 228.193 36.52 228.3 35.72C228.407 34.92 228.513 34.0933 228.62 33.24ZM277.288 39.16C277.715 39.2667 277.821 39.5067 277.608 39.88L277.048 41.56C276.515 42.8933 275.768 44.84 274.808 47.4C273.848 49.96 272.755 52.6267 271.528 55.4C269.555 59.88 267.741 63.4533 266.088 66.12C264.061 69.5333 262.301 71.24 260.808 71.24H260.648C259.101 70.8133 258.008 69.8267 257.368 68.28C256.781 66.68 256.435 64.7867 256.328 62.6C256.275 60.4133 256.408 58.0667 256.728 55.56C257.048 53.0533 257.395 50.68 257.768 48.44L258.568 42.52C254.888 42.04 251.928 40.7067 249.688 38.52C248.461 37.3467 247.528 36.0133 246.888 34.52C246.248 33.0267 245.928 31.48 245.928 29.88C245.928 27.6933 246.488 25.9067 247.608 24.52C248.835 22.9733 250.461 22.2 252.488 22.2C253.715 22.2 254.621 22.6533 255.208 23.56C255.795 24.4667 256.115 25.5867 256.168 26.92C256.221 28.2533 256.195 29.48 256.088 30.6C255.928 31.72 255.688 32.92 255.368 34.2C255.048 35.4267 254.675 36.6533 254.248 37.88C254.835 38.5733 255.528 39.24 256.328 39.88C257.181 40.52 258.168 40.9733 259.288 41.24C259.395 41.24 259.661 41.2667 260.088 41.32C260.568 41.3733 261.048 41.4533 261.528 41.56H261.608C261.821 41.56 261.955 41.6133 262.008 41.72C262.541 41.88 262.995 42.12 263.368 42.44C263.795 42.7067 264.008 43.1333 264.008 43.72C264.008 44.36 263.928 45.32 263.768 46.6C263.661 47.88 263.475 49.32 263.208 50.92C262.995 52.6267 262.755 54.4133 262.488 56.28C262.275 58.0933 262.115 59.8 262.008 61.4C261.901 62.6267 261.848 63.6133 261.848 64.36C261.901 65.0533 261.955 65.6133 262.008 66.04C262.061 66.4133 262.115 66.68 262.168 66.84C262.221 67 262.275 67.08 262.328 67.08C262.381 67.08 262.515 67 262.728 66.84C262.995 66.68 263.395 66.2533 263.928 65.56C264.461 64.8667 265.128 63.8267 265.928 62.44C266.781 61.0533 267.821 59.1333 269.048 56.68C270.275 54.1733 271.501 51.5333 272.728 48.76C274.008 45.9333 275.075 43.4 275.928 41.16C276.035 40.8933 276.115 40.68 276.168 40.52C276.221 40.3067 276.275 40.12 276.328 39.96C276.381 39.7467 276.435 39.5867 276.488 39.48C276.701 39.1067 276.968 39 277.288 39.16ZM252.488 24.2C252.061 24.2 251.688 24.5733 251.368 25.32C251.101 26.0133 250.968 26.9467 250.968 28.12C250.968 29.4533 251.155 30.84 251.528 32.28C251.901 33.72 252.435 35.0267 253.128 36.2C253.341 35.1867 253.528 34.0933 253.688 32.92C253.848 31.7467 253.955 30.6267 254.008 29.56C254.061 28.4933 254.035 27.5067 253.928 26.6C253.821 25.6933 253.608 25.0267 253.288 24.6C253.128 24.3333 252.861 24.2 252.488 24.2ZM298.359 39.16C298.732 39.2667 298.865 39.5067 298.759 39.88C298.652 40.1467 298.545 40.4133 298.439 40.68C298.332 40.9467 298.225 41.24 298.119 41.56C297.639 42.8933 296.892 44.84 295.879 47.4C294.919 49.96 293.825 52.6267 292.599 55.4C291.585 57.6933 290.625 59.7467 289.719 61.56C288.812 63.32 287.985 64.84 287.239 66.12C285.159 69.5333 283.372 71.24 281.879 71.24C280.172 71.24 278.759 70.6 277.639 69.32C275.239 66.6 274.145 60.5467 274.359 51.16C274.465 47.1067 274.759 42.84 275.239 38.36C275.719 33.8267 276.225 29.4533 276.759 25.24C276.919 23.6933 277.079 22.2 277.239 20.76C277.452 19.2667 277.612 17.8267 277.719 16.44C276.385 16.1733 275.079 15.9333 273.799 15.72C272.572 15.4533 271.399 15.2933 270.279 15.24C269.159 15.1867 268.145 15.2667 267.239 15.48C266.332 15.64 265.559 16.04 264.919 16.68C264.652 16.9467 264.385 16.9467 264.119 16.68C263.799 16.36 263.799 16.0933 264.119 15.88C264.812 15.1333 265.665 14.6267 266.679 14.36C267.692 14.0933 268.812 13.9867 270.039 14.04C271.212 14.04 272.465 14.1733 273.799 14.44C275.132 14.6533 276.492 14.92 277.879 15.24C278.039 13.5867 278.172 12.0667 278.279 10.68C278.385 9.29333 278.439 8.06666 278.439 7C278.439 6.52 278.519 6.17333 278.679 5.96C278.839 5.74666 278.999 5.61333 279.159 5.56C279.799 5.29333 280.705 5.72 281.879 6.84C282.305 7.21333 282.652 7.56 282.919 7.88C283.185 8.14667 283.319 8.30667 283.319 8.36C283.425 8.46666 283.479 8.57333 283.479 8.68C283.479 9.85333 283.425 11.08 283.319 12.36C283.265 13.5867 283.185 14.8933 283.079 16.28C284.252 16.4933 285.399 16.6533 286.519 16.76C287.692 16.8133 288.785 16.76 289.799 16.6C290.865 16.44 291.852 16.1733 292.759 15.8C293.719 15.3733 294.599 14.7867 295.399 14.04C295.719 13.72 295.985 13.72 296.199 14.04C296.519 14.2533 296.519 14.52 296.199 14.84C295.025 16.0133 293.719 16.8133 292.279 17.24C290.839 17.6667 289.292 17.88 287.639 17.88C286.892 17.88 286.119 17.8533 285.319 17.8C284.519 17.6933 283.745 17.5867 282.999 17.48C282.785 19.6133 282.545 21.8267 282.279 24.12C282.012 26.4133 281.719 28.76 281.399 31.16C280.972 34.7867 280.545 38.44 280.119 42.12C279.692 45.8 279.425 49.2667 279.319 52.52C279.212 55.72 279.292 58.5467 279.559 61C279.825 63.4 280.412 65.1067 281.319 66.12C281.852 66.76 282.545 67.08 283.399 67.08C283.399 67.08 283.505 67.0267 283.719 66.92C283.985 66.8133 284.359 66.44 284.839 65.8C285.372 65.1067 286.065 64.0667 286.919 62.68C287.825 61.24 288.919 59.24 290.199 56.68C291.425 54.1733 292.652 51.5067 293.879 48.68C295.105 45.8533 296.145 43.32 296.999 41.08C297.425 40.0133 297.639 39.48 297.639 39.48C297.745 39.0533 297.985 38.9467 298.359 39.16ZM322.253 39.16C322.626 39.2667 322.759 39.5067 322.653 39.88C322.653 39.88 322.519 40.28 322.253 41.08C321.986 41.8267 321.586 42.84 321.053 44.12C320.573 45.3467 319.986 46.76 319.293 48.36C318.653 49.9067 317.933 51.5067 317.133 53.16C312.706 62.2267 308.679 66.76 305.053 66.76C300.999 66.76 297.853 65.2667 295.613 62.28C293.746 59.7733 292.812 56.4667 292.812 52.36C292.812 50.1733 293.079 47.9867 293.613 45.8C294.199 43.56 294.999 41.56 296.013 39.8C297.079 38.04 298.333 36.6 299.773 35.48C301.213 34.36 302.786 33.8 304.493 33.8C306.413 33.8 307.853 34.5467 308.813 36.04C309.773 37.32 310.253 38.9733 310.253 41C310.253 44.0933 309.293 46.84 307.373 49.24C306.626 50.2 305.533 51.1333 304.093 52.04C302.706 52.9467 300.893 53.4 298.653 53.4C298.279 53.4 298.092 53.1867 298.092 52.76C298.092 52.3867 298.279 52.2 298.653 52.2C299.613 52.2 300.599 51.7733 301.613 50.92C302.679 50.0133 303.666 48.76 304.572 47.16C305.373 45.7733 306.013 44.3067 306.493 42.76C307.026 41.16 307.293 39.8 307.293 38.68C307.293 38.04 307.186 37.5067 306.973 37.08C306.813 36.8133 306.573 36.68 306.253 36.68C303.906 36.68 301.879 38.2267 300.173 41.32C299.479 42.5467 298.919 43.96 298.493 45.56C298.066 47.16 297.799 48.7867 297.693 50.44C297.586 52.04 297.666 53.64 297.933 55.24C298.253 56.7867 298.786 58.1467 299.533 59.32C301.026 61.6667 303.346 62.76 306.493 62.6H306.573C307.479 62.6 308.626 61.88 310.013 60.44C311.453 59 312.946 56.9733 314.493 54.36C315.826 52.12 317.106 49.6933 318.333 47.08C319.613 44.4133 320.679 41.88 321.533 39.48C321.639 39.0533 321.879 38.9467 322.253 39.16ZM344.159 38.44C344.479 38.6 344.585 38.8667 344.479 39.24C343.359 41.8 341.545 44.3067 339.039 46.76C336.532 49.2133 333.812 51.64 330.879 54.04C331.572 55.6933 332.212 57.32 332.799 58.92C333.439 60.52 333.999 62.0933 334.479 63.64C334.799 64.7067 335.065 65.9867 335.279 67.48C335.545 68.9733 335.679 70.52 335.679 72.12C335.732 73.6667 335.625 75.1867 335.359 76.68C335.092 78.1733 334.612 79.4533 333.919 80.52C333.279 81.5867 332.399 82.36 331.279 82.84C330.159 83.3733 328.745 83.4533 327.039 83.08C324.905 82.6 323.119 81.7467 321.679 80.52C320.292 79.2933 319.252 77.8533 318.559 76.2C317.865 74.5467 317.465 72.76 317.359 70.84C317.305 68.92 317.572 67.0533 318.159 65.24C318.745 63.3733 319.599 61.64 320.719 60.04C321.892 58.3867 323.332 57 325.039 55.88L322.399 49.48C321.812 48.0933 321.279 46.8667 320.799 45.8C320.372 44.7333 319.972 43.7467 319.599 42.84C319.225 41.88 318.852 40.9467 318.479 40.04C318.159 39.1333 317.839 38.12 317.519 37C316.772 34.44 316.319 32.52 316.159 31.24C315.945 29.9067 316.159 28.76 316.799 27.8C317.652 26.52 319.119 25.88 321.199 25.88C322.372 25.88 323.279 26.3333 323.919 27.24C324.505 28.1467 324.879 29.08 325.039 30.04C325.252 31 325.279 32.04 325.119 33.16C325.012 34.0667 324.852 35 324.639 35.96C324.425 36.92 324.159 37.9067 323.839 38.92C324.052 39.4533 324.239 39.88 324.399 40.2C324.612 40.4667 324.799 40.7333 324.959 41C325.119 41.2667 325.279 41.56 325.439 41.88C325.652 42.2 325.892 42.6533 326.159 43.24C326.799 44.68 327.439 46.1467 328.079 47.64C328.772 49.08 329.439 50.5733 330.079 52.12C332.745 50.0933 335.252 47.9867 337.599 45.8C339.945 43.6133 341.892 41.24 343.439 38.68C343.652 38.36 343.892 38.28 344.159 38.44ZM322.079 62.12C320.852 63.4533 320.105 65.08 319.839 67C319.572 68.8667 319.599 70.7067 319.919 72.52C320.292 74.28 320.879 75.88 321.679 77.32C322.479 78.76 323.332 79.6933 324.239 80.12C325.199 80.6 326.105 80.44 326.959 79.64C327.865 78.8933 328.585 77.1867 329.119 74.52C329.385 73.24 329.465 71.9067 329.359 70.52C329.252 69.1333 329.012 67.7467 328.639 66.36C328.319 64.9733 327.892 63.5867 327.359 62.2C326.879 60.8133 326.399 59.4533 325.919 58.12C325.065 58.8133 324.479 59.32 324.159 59.64C323.839 59.9067 323.599 60.1467 323.439 60.36C323.332 60.52 323.199 60.7067 323.039 60.92C322.932 61.1333 322.612 61.5333 322.079 62.12ZM322.639 37.16C322.905 35.3467 323.092 33.64 323.199 32.04C323.359 30.3867 323.172 29.2133 322.639 28.52C322.532 28.36 322.292 28.2267 321.919 28.12C321.599 27.96 321.359 27.88 321.199 27.88C320.665 27.88 320.345 28.0133 320.239 28.28C319.865 28.8667 319.945 29.96 320.479 31.56C321.012 33.1067 321.732 34.9733 322.639 37.16ZM374.382 39.16C374.755 39.2667 374.889 39.5067 374.782 39.88C374.675 40.1467 374.569 40.4133 374.462 40.68C374.355 40.9467 374.249 41.24 374.142 41.56C373.662 42.8933 372.915 44.84 371.902 47.4C370.942 49.96 369.849 52.6267 368.622 55.4C367.609 57.6933 366.649 59.7467 365.742 61.56C364.889 63.32 364.062 64.84 363.262 66.12C361.182 69.5333 359.395 71.24 357.902 71.24H357.742C354.969 70.5467 353.582 67.1333 353.582 61C353.582 59.7733 353.635 58.5467 353.742 57.32C353.849 56.04 353.982 54.76 354.142 53.48L353.102 55.24C351.875 57.1067 350.489 58.5467 348.942 59.56C347.449 60.52 345.902 61 344.302 61C342.009 61 340.249 60.1467 339.022 58.44C337.955 56.9467 337.422 54.9733 337.422 52.52C337.422 50.5467 337.742 48.5467 338.382 46.52C339.022 44.44 339.929 42.52 341.102 40.76C342.435 38.7867 343.929 37.2667 345.582 36.2C347.235 35.1333 348.942 34.6 350.702 34.6C352.889 34.6 354.515 35.2667 355.582 36.6L356.302 37.72C356.355 37.6667 356.382 37.64 356.382 37.64C356.435 37.5867 356.462 37.56 356.462 37.56H356.782C356.835 37.56 357.129 37.5867 357.662 37.64C358.195 37.6933 358.729 37.8 359.262 37.96C359.849 38.0667 360.382 38.2533 360.862 38.52C361.342 38.7333 361.582 39.0533 361.582 39.48C361.582 40.12 361.502 41.16 361.342 42.6C361.182 43.9867 360.969 45.6133 360.702 47.48C360.435 49.5067 360.169 51.64 359.902 53.88C359.635 56.0667 359.422 58.12 359.262 60.04C359.155 61.48 359.102 62.6533 359.102 63.56C359.102 64.4133 359.129 65.1067 359.182 65.64C359.235 66.12 359.289 66.4667 359.342 66.68C359.395 66.8933 359.449 67.0267 359.502 67.08C359.555 67.08 359.715 66.9733 359.982 66.76C360.249 66.5467 360.649 66.0933 361.182 65.4C361.715 64.7067 362.382 63.6667 363.182 62.28C364.035 60.8933 365.049 59.0267 366.222 56.68C367.449 54.1733 368.675 51.5333 369.902 48.76C371.182 45.9333 372.222 43.4 373.022 41.16C373.449 40.04 373.662 39.48 373.662 39.48C373.769 39.0533 374.009 38.9467 374.382 39.16ZM343.582 56.76C344.062 57.56 344.649 57.96 345.342 57.96C346.889 57.96 348.222 57.5067 349.342 56.6C350.515 55.6933 351.475 54.5467 352.222 53.16C353.022 51.72 353.662 50.1733 354.142 48.52C354.675 46.8667 355.075 45.32 355.342 43.88C355.502 41.5333 355.182 39.7467 354.382 38.52C353.902 37.88 353.235 37.5333 352.382 37.48C352.275 37.48 352.195 37.48 352.142 37.48C352.089 37.4267 352.009 37.4 351.902 37.4C350.515 37.4 349.315 37.8533 348.302 38.76C347.289 39.6133 346.489 40.4933 345.902 41.4C345.102 42.6267 344.462 43.9867 343.982 45.48C343.502 46.9733 343.155 48.44 342.942 49.88C342.782 51.2667 342.755 52.5733 342.862 53.8C342.969 55.0267 343.209 56.0133 343.582 56.76ZM407.708 39.16C408.081 39.2667 408.215 39.5067 408.108 39.88L407.468 41.56C406.988 42.8933 406.241 44.84 405.228 47.4C404.268 49.96 403.175 52.6267 401.948 55.4C400.988 57.6933 400.055 59.7467 399.148 61.56C398.241 63.32 397.388 64.84 396.588 66.12C394.508 69.5333 392.721 71.24 391.228 71.24H391.148C388.321 70.4933 387.068 66.52 387.388 59.32C387.495 56.3867 387.788 53.2933 388.268 50.04C388.748 46.7333 389.228 43.6667 389.708 40.84C389.868 39.7733 390.001 38.76 390.108 37.8C390.268 36.84 390.401 35.9867 390.508 35.24H390.428C389.575 35.6133 388.401 37.1333 386.908 39.8C385.415 42.4133 383.788 45.8267 382.028 50.04C381.281 51.8533 380.588 53.6667 379.948 55.48C379.308 57.24 378.748 58.8933 378.268 60.44C377.788 61.9333 377.388 63.2667 377.068 64.44C376.801 65.56 376.668 66.36 376.668 66.84C376.668 67.2667 376.455 67.48 376.028 67.48C375.921 67.48 375.841 67.4533 375.788 67.4L375.708 67.48C375.601 67.48 375.415 67.5067 375.148 67.56C374.935 67.56 374.641 67.56 374.268 67.56C373.735 67.56 373.175 67.5067 372.588 67.4C372.055 67.2933 371.601 67.08 371.228 66.76C370.801 66.3867 370.588 65.9067 370.588 65.32V34.52C370.588 33.6667 371.041 33.24 371.948 33.24C372.268 33.24 372.668 33.3467 373.148 33.56C373.681 33.72 374.161 33.96 374.588 34.28C375.068 34.5467 375.468 34.8667 375.788 35.24C376.108 35.56 376.268 35.88 376.268 36.2C376.268 36.2533 376.268 36.9733 376.268 38.36C376.268 39.6933 376.241 41.4267 376.188 43.56C376.188 45.6933 376.188 48.04 376.188 50.6C376.188 53.16 376.188 55.64 376.188 58.04C376.775 56.0133 377.521 53.8 378.428 51.4C379.388 49 380.401 46.76 381.468 44.68C383.281 41.0533 384.988 38.12 386.588 35.88C388.508 33.2667 390.081 31.96 391.308 31.96H391.388C391.388 31.96 391.655 31.9867 392.188 32.04C392.721 32.04 393.281 32.12 393.868 32.28C394.455 32.3867 394.988 32.5733 395.468 32.84C396.001 33.1067 396.268 33.48 396.268 33.96C396.268 34.6 396.135 35.8 395.868 37.56C395.655 39.2667 395.361 41.32 394.988 43.72C394.615 46.12 394.241 48.6267 393.868 51.24C393.548 53.8533 393.255 56.3067 392.988 58.6C392.828 60.2533 392.721 61.6133 392.668 62.68C392.615 63.6933 392.588 64.52 392.588 65.16C392.588 65.8 392.615 66.2533 392.668 66.52C392.721 66.7867 392.775 66.9733 392.828 67.08C392.935 67.0267 393.121 66.8933 393.388 66.68C393.708 66.4133 394.108 65.9333 394.588 65.24C395.121 64.4933 395.788 63.4533 396.588 62.12C397.441 60.7333 398.428 58.92 399.548 56.68C400.775 54.1733 402.001 51.5333 403.228 48.76C404.508 45.9333 405.548 43.4 406.348 41.16C406.455 40.8933 406.535 40.68 406.588 40.52C406.695 40.3067 406.775 40.12 406.828 39.96C406.881 39.7467 406.935 39.5867 406.988 39.48C407.041 39.32 407.148 39.2133 407.308 39.16C407.468 39.0533 407.601 39.0533 407.708 39.16ZM438.988 39.32C439.201 38.9467 439.468 38.92 439.788 39.24C440.054 39.4 440.081 39.6933 439.868 40.12C435.601 45.1867 431.254 48.36 426.828 49.64C426.614 49.7467 426.401 49.8267 426.188 49.88C426.028 49.88 425.868 49.9067 425.707 49.96C425.494 52.36 425.068 54.68 424.428 56.92C423.841 59.1067 423.041 61.0533 422.028 62.76C421.014 64.4667 419.814 65.8267 418.428 66.84C417.041 67.8533 415.468 68.36 413.708 68.36C412.108 68.36 410.721 68.1467 409.548 67.72C408.428 67.2933 407.441 66.76 406.588 66.12C405.788 65.48 405.121 64.76 404.588 63.96C404.108 63.16 403.708 62.36 403.388 61.56C402.641 59.8 402.241 57.7733 402.188 55.48C402.188 53.1867 402.481 50.7867 403.068 48.28C403.494 46.7333 404.001 45.2667 404.588 43.88C405.228 42.44 405.921 41.1067 406.668 39.88C406.561 39.6133 406.428 39.3733 406.268 39.16C406.108 38.9467 405.974 38.7067 405.868 38.44C404.801 36.2533 404.054 34.12 403.628 32.04C403.254 29.9067 403.254 28.04 403.628 26.44C404.428 23.24 406.428 21.64 409.628 21.64C414.908 21.64 419.041 24.28 422.028 29.56C423.254 31.8 424.188 34.36 424.828 37.24C425.521 40.0667 425.868 43.08 425.868 46.28C425.868 46.4933 425.841 46.7067 425.788 46.92C425.788 47.1333 425.788 47.3467 425.788 47.56C426.054 47.5067 426.294 47.48 426.508 47.48C426.721 47.4267 426.934 47.3733 427.148 47.32C431.148 46.36 435.094 43.6933 438.988 39.32ZM420.988 50.28C419.174 50.12 417.361 49.5867 415.548 48.68C414.854 48.3067 414.161 47.9067 413.468 47.48C412.828 47.0533 412.214 46.5467 411.628 45.96C410.934 47.5067 410.348 49.2133 409.868 51.08C409.281 53.5867 408.934 55.8533 408.828 57.88C408.774 59.8533 409.014 61.48 409.548 62.76C410.348 64.7333 411.868 65.72 414.108 65.72C414.748 65.72 415.334 65.56 415.868 65.24C416.401 64.92 416.854 64.4933 417.228 63.96C417.654 63.4267 418.028 62.84 418.348 62.2C418.668 61.56 418.934 60.9467 419.148 60.36C420.108 57.5867 420.721 54.2267 420.988 50.28ZM418.268 31.24C417.948 30.3867 417.521 29.5333 416.988 28.68C416.508 27.8267 415.948 27.0533 415.308 26.36C414.668 25.6133 413.921 25.0267 413.068 24.6C412.214 24.12 411.281 23.88 410.268 23.88C408.028 23.88 406.668 24.8933 406.188 26.92C405.868 28.2 405.894 29.72 406.268 31.48C406.641 33.1867 407.334 34.9733 408.348 36.84C408.401 37.1067 408.508 37.2933 408.668 37.4C408.774 37.2933 408.854 37.2133 408.908 37.16C409.014 37.0533 409.121 36.9467 409.228 36.84C409.494 36.5733 409.761 36.5733 410.028 36.84C410.188 36.9467 410.481 37.1867 410.908 37.56C411.334 37.9333 411.761 38.36 412.188 38.84C412.614 39.32 412.988 39.8267 413.308 40.36C413.681 40.84 413.868 41.32 413.868 41.8C413.868 41.96 413.788 42.12 413.628 42.28C413.468 42.44 413.281 42.7067 413.068 43.08C414.348 44.3067 415.708 45.2667 417.148 45.96C418.428 46.7067 419.734 47.1867 421.068 47.4C421.068 44.36 420.828 41.4533 420.348 38.68C419.868 35.9067 419.174 33.4267 418.268 31.24Z" fill="#FAFAD2"/>
</svg>
