<svg width="49" height="73" viewBox="0 0 49 73" fill="none" xmlns="http://www.w3.org/2000/svg">
<path fill-rule="evenodd" clip-rule="evenodd" d="M24.0414 0C16.1133 14.0193 0 29.2364 0 46.7988C0 61.0628 10.7629 72.6233 24.0414 72.6233C37.3202 72.6233 48.0828 61.0607 48.0828 46.7988C48.0828 29.2337 31.9713 14.0179 24.0414 0ZM8.05437 46.7988C8.05437 45.8474 8.8241 45.0782 9.77492 45.0782C10.7263 45.0782 11.4955 45.8479 11.4955 46.7988C11.4955 50.5823 12.9153 54.0009 15.21 56.4661C17.4728 58.8992 20.5972 60.4039 24.0409 60.4039C24.9922 60.4039 25.7614 61.1737 25.7614 62.1245C25.7614 63.0758 24.9917 63.845 24.0409 63.845C19.6047 63.845 15.5936 61.9177 12.6962 58.8047C9.82674 55.7242 8.05328 51.4786 8.05328 46.7988H8.05437Z" fill="#012E46"/>
</svg>
