<svg width="238" height="238" viewBox="0 0 238 238" fill="none" xmlns="http://www.w3.org/2000/svg">
<path fill-rule="evenodd" clip-rule="evenodd" d="M83.0414 46C75.1133 60.0193 59 75.2364 59 92.7988C59 107.063 69.7629 118.623 83.0414 118.623C96.3202 118.623 107.083 107.061 107.083 92.7988C107.083 75.2337 90.9713 60.0179 83.0414 46ZM67.0544 92.7988C67.0544 91.8474 67.8241 91.0782 68.7749 91.0782C69.7263 91.0782 70.4955 91.8479 70.4955 92.7988C70.4955 96.5823 71.9153 100.001 74.21 102.466C76.4728 104.899 79.5972 106.404 83.0409 106.404C83.9922 106.404 84.7614 107.174 84.7614 108.124C84.7614 109.076 83.9917 109.845 83.0409 109.845C78.6047 109.845 74.5936 107.918 71.6962 104.805C68.8267 101.724 67.0533 97.4786 67.0533 92.7988H67.0544Z" fill="#9D2F2F"/>
</svg>
