<svg width="73" height="64" viewBox="0 0 73 64" fill="none" xmlns="http://www.w3.org/2000/svg">
<path d="M41.5476 37.6989C40.9009 37.6963 40.2793 37.9438 39.8222 38.3857C39.3644 38.8283 39.1084 39.4286 39.1111 40.0545C39.1132 40.6771 39.3712 41.2728 39.8283 41.7115C40.2854 42.1501 40.9036 42.395 41.5476 42.3923C46.1836 42.3923 49.8784 45.9721 49.8784 50.4292C49.8784 54.8863 46.1838 58.4484 41.5476 58.4484C36.9117 58.4484 33.2169 54.8863 33.2169 50.4292C33.2196 49.804 32.9636 49.203 32.5059 48.7611C32.0488 48.3185 31.4271 48.071 30.7804 48.0736C30.1364 48.0756 29.5195 48.325 29.0658 48.7669C28.6121 49.2089 28.3588 49.8066 28.3615 50.4292C28.3615 57.4303 34.2963 63.1424 41.5475 63.1424C48.7987 63.1424 54.7335 57.4296 54.7335 50.4292C54.7335 43.4281 48.7987 37.6982 41.5475 37.6982L41.5476 37.6989Z" fill="#9D2F2F"/>
<path d="M2.4189 37.699C1.7749 37.7009 1.15799 37.9504 0.704275 38.3923C0.250561 38.8342 -0.00269821 39.4319 6.17939e-06 40.0545C0.00474649 41.3436 1.08485 42.3885 2.41888 42.3924H41.5476H41.5469C42.881 42.3884 43.9611 41.3436 43.9658 40.0545C43.9685 39.4319 43.7146 38.8342 43.2609 38.3923C42.8078 37.9504 42.1909 37.7009 41.5469 37.699H2.4189Z" fill="#9D2F2F"/>
<path d="M55.4493 0C45.8584 0 38.0891 7.74942 38.0891 17.1638C38.0912 17.7864 38.3492 18.3821 38.8063 18.8208C39.2634 19.2594 39.8816 19.5049 40.5256 19.5023C41.8597 19.4977 42.9398 18.4535 42.9445 17.1638C42.9445 10.2202 48.5509 4.69278 55.4501 4.69278C62.3485 4.69278 67.9556 10.2202 67.9556 17.1638C67.9556 24.1074 62.3492 29.6172 55.4501 29.6172H55.4494C54.8027 29.6152 54.1817 29.8627 53.7239 30.3046C53.2668 30.7472 53.0109 31.3475 53.0129 31.9734C53.0156 32.5953 53.2736 33.1918 53.7307 33.6304C54.1871 34.069 54.8061 34.3139 55.4494 34.3113C65.0403 34.3113 72.8095 26.5788 72.8095 17.1643C72.8095 7.74974 65.0396 -0.00119009 55.4494 0.000485897L55.4493 0Z" fill="#9D2F2F"/>
<path d="M2.4189 29.6173C1.7749 29.6199 1.15799 29.8694 0.704275 30.3113C0.250561 30.7525 -0.00269821 31.3509 6.17939e-06 31.9735C0.00474649 33.2626 1.08485 34.3068 2.41888 34.3113H55.451H55.4503C56.7843 34.3074 57.8645 33.2625 57.8691 31.9735C57.8719 31.3509 57.6186 30.7525 57.1649 30.3106C56.7112 29.8694 56.0943 29.6199 55.4503 29.6173H2.4189Z" fill="#9D2F2F"/>
<path d="M2.4189 21.5391C1.7749 21.541 1.15799 21.7905 0.704275 22.2324C0.251237 22.6736 -0.00269827 23.272 6.12317e-06 23.8946C0.00474644 25.1837 1.08485 26.2279 2.41888 26.2324H22.3048C23.6382 26.2279 24.7183 25.1836 24.723 23.8946C24.7257 23.272 24.4724 22.6736 24.0187 22.2324C23.565 21.7905 22.9481 21.541 22.3048 21.5391H2.4189Z" fill="#9D2F2F"/>
<path d="M22.3066 5.11781C16.6468 5.11781 11.878 9.33794 11.3958 14.7829C11.3382 15.4035 11.538 16.0202 11.9517 16.4974C12.3648 16.9753 12.9573 17.2745 13.5993 17.3295C14.2433 17.3845 14.8839 17.1887 15.3783 16.7855C15.8733 16.3822 16.1808 15.8047 16.2329 15.1815C16.5038 12.1314 19.1143 9.81181 22.3065 9.81181C25.7066 9.81181 28.3978 12.4227 28.3978 15.6836C28.3978 18.9446 25.7068 21.5378 22.3065 21.5378V21.5385C21.6591 21.5359 21.0382 21.7833 20.5804 22.2253C20.1233 22.6678 19.8673 23.2682 19.87 23.894C19.872 24.516 20.13 25.1124 20.5871 25.551C21.0436 25.9897 21.6625 26.2345 22.3065 26.2319C28.32 26.2319 33.2532 21.49 33.2532 15.6836C33.2532 9.87714 28.32 5.11768 22.3065 5.11768L22.3066 5.11781Z" fill="#9D2F2F"/>
</svg>
