<svg width="251" height="83" viewBox="0 0 251 83" fill="none" xmlns="http://www.w3.org/2000/svg">
<path d="M45.68 56.12C46.2133 56.92 46.56 57.9333 46.72 59.16C46.88 60.3867 46.8533 61.72 46.64 63.16C46.48 64.6 46.1333 66.12 45.6 67.72C45.12 69.2667 44.48 70.7867 43.68 72.28C41.9733 75.4267 39.8933 77.88 37.44 79.64C34.4 81.7733 31.1467 82.84 27.68 82.84C23.2533 82.84 19.2533 81.88 15.68 79.96C12.16 78.04 9.17333 75.24 6.72 71.56C4.53333 68.3067 2.85333 64.52 1.68 60.2C0.56 55.88 0 51.2133 0 46.2C0 40.5467 0.72 35.0533 2.16 29.72C3.65333 24.3333 5.76 19.5333 8.48 15.32C11.36 10.7867 14.8 7.26666 18.8 4.75999C23.0133 2.03999 27.7067 0.679995 32.88 0.679995C37.4667 0.679995 41.0133 2.17333 43.52 5.16C45.7067 7.82666 46.8 11.16 46.8 15.16C46.8 17.2933 46.48 19.3733 45.84 21.4C45.2 23.4267 44.2933 25.24 43.12 26.84C41.7867 28.6533 40.24 30.04 38.48 31C36.7733 31.96 34.9067 32.44 32.88 32.44C32.5067 32.44 32.32 32.2267 32.32 31.8C32.32 31.4267 32.5067 31.24 32.88 31.24C34.4267 31.24 35.8667 30.7333 37.2 29.72C38.5867 28.7067 39.76 27.4 40.72 25.8C41.7333 24.1467 42.5067 22.3333 43.04 20.36C43.6267 18.3333 43.92 16.36 43.92 14.44C43.92 11.08 43.0667 8.33333 41.36 6.2C39.4933 3.85333 36.72 2.68 33.04 2.68C30.5867 2.68 28.3733 3.08 26.4 3.88C24.4267 4.68 22.64 5.72 21.04 7C19.4933 8.28 18.1333 9.72 16.96 11.32C15.84 12.8667 14.88 14.3867 14.08 15.88C12.0533 19.72 10.48 24.1467 9.36 29.16C8.24 34.1733 7.68 39.3733 7.68 44.76C7.68 49.6133 8.10667 54.1733 8.96 58.44C9.86667 62.7067 11.1467 66.4667 12.8 69.72C13.92 71.96 15.12 73.7733 16.4 75.16C17.7333 76.6 19.04 77.72 20.32 78.52C21.6533 79.32 22.96 79.8533 24.24 80.12C25.52 80.44 26.6933 80.6 27.76 80.6C28.56 80.6 29.44 80.4933 30.4 80.28C31.36 80.0667 32.3733 79.6667 33.44 79.08C34.5067 78.4933 35.5733 77.6667 36.64 76.6C37.7067 75.5867 38.7733 74.2533 39.84 72.6C41.28 70.2 42.32 67.8 42.96 65.4C43.6533 62.9467 44 60.8667 44 59.16C44 58.0933 43.8667 57.2133 43.6 56.52C43.44 56.1467 43.2533 55.9333 43.04 55.88C42.88 55.7733 42.7467 55.72 42.64 55.72C42.2667 55.72 42.08 55.5333 42.08 55.16C42.08 54.84 42.2667 54.6267 42.64 54.52C43.92 54.4133 44.9333 54.9467 45.68 56.12ZM87.1125 37.32C87.3258 36.9467 87.5925 36.92 87.9125 37.24C88.1792 37.4 88.2058 37.6933 87.9925 38.12C83.7258 43.1867 79.3792 46.36 74.9525 47.64C74.7392 47.7467 74.5258 47.8267 74.3125 47.88C74.1525 47.88 73.9925 47.9067 73.8325 47.96C73.6192 50.36 73.1925 52.68 72.5525 54.92C71.9658 57.1067 71.1658 59.0533 70.1525 60.76C69.1392 62.4667 67.9392 63.8267 66.5525 64.84C65.1658 65.8533 63.5925 66.36 61.8325 66.36C60.2325 66.36 58.8458 66.1467 57.6725 65.72C56.5525 65.2933 55.5658 64.76 54.7125 64.12C53.9125 63.48 53.2458 62.76 52.7125 61.96C52.2325 61.16 51.8325 60.36 51.5125 59.56C50.7658 57.8 50.3658 55.7733 50.3125 53.48C50.3125 51.1867 50.6058 48.7867 51.1925 46.28C51.6192 44.7333 52.1258 43.2667 52.7125 41.88C53.3525 40.44 54.0458 39.1067 54.7925 37.88C54.6858 37.6133 54.5525 37.3733 54.3925 37.16C54.2325 36.9467 54.0992 36.7067 53.9925 36.44C52.9258 34.2533 52.1792 32.12 51.7525 30.04C51.3792 27.9067 51.3792 26.04 51.7525 24.44C52.5525 21.24 54.5525 19.64 57.7525 19.64C63.0325 19.64 67.1658 22.28 70.1525 27.56C71.3792 29.8 72.3125 32.36 72.9525 35.24C73.6458 38.0667 73.9925 41.08 73.9925 44.28C73.9925 44.4933 73.9658 44.7067 73.9125 44.92C73.9125 45.1333 73.9125 45.3467 73.9125 45.56C74.1792 45.5067 74.4192 45.48 74.6325 45.48C74.8458 45.4267 75.0592 45.3733 75.2725 45.32C79.2725 44.36 83.2192 41.6933 87.1125 37.32ZM69.1125 48.28C67.2992 48.12 65.4858 47.5867 63.6725 46.68C62.9792 46.3067 62.2858 45.9067 61.5925 45.48C60.9525 45.0533 60.3392 44.5467 59.7525 43.96C59.0592 45.5067 58.4725 47.2133 57.9925 49.08C57.4058 51.5867 57.0592 53.8533 56.9525 55.88C56.8992 57.8533 57.1392 59.48 57.6725 60.76C58.4725 62.7333 59.9925 63.72 62.2325 63.72C62.8725 63.72 63.4592 63.56 63.9925 63.24C64.5258 62.92 64.9792 62.4933 65.3525 61.96C65.7792 61.4267 66.1525 60.84 66.4725 60.2C66.7925 59.56 67.0592 58.9467 67.2725 58.36C68.2325 55.5867 68.8458 52.2267 69.1125 48.28ZM66.3925 29.24C66.0725 28.3867 65.6458 27.5333 65.1125 26.68C64.6325 25.8267 64.0725 25.0533 63.4325 24.36C62.7925 23.6133 62.0458 23.0267 61.1925 22.6C60.3392 22.12 59.4058 21.88 58.3925 21.88C56.1525 21.88 54.7925 22.8933 54.3125 24.92C53.9925 26.2 54.0192 27.72 54.3925 29.48C54.7658 31.1867 55.4592 32.9733 56.4725 34.84C56.5258 35.1067 56.6325 35.2933 56.7925 35.4C56.8992 35.2933 56.9792 35.2133 57.0325 35.16C57.1392 35.0533 57.2458 34.9467 57.3525 34.84C57.6192 34.5733 57.8858 34.5733 58.1525 34.84C58.3125 34.9467 58.6058 35.1867 59.0325 35.56C59.4592 35.9333 59.8858 36.36 60.3125 36.84C60.7392 37.32 61.1125 37.8267 61.4325 38.36C61.8058 38.84 61.9925 39.32 61.9925 39.8C61.9925 39.96 61.9125 40.12 61.7525 40.28C61.5925 40.44 61.4058 40.7067 61.1925 41.08C62.4725 42.3067 63.8325 43.2667 65.2725 43.96C66.5525 44.7067 67.8592 45.1867 69.1925 45.4C69.1925 42.36 68.9525 39.4533 68.4725 36.68C67.9925 33.9067 67.2992 31.4267 66.3925 29.24ZM121.068 37.16C121.441 37.2667 121.574 37.5067 121.468 37.88L120.828 39.56C120.348 40.8933 119.601 42.84 118.588 45.4C117.628 47.96 116.534 50.6267 115.308 53.4C114.348 55.6933 113.414 57.7467 112.508 59.56C111.601 61.32 110.748 62.84 109.948 64.12C107.868 67.5333 106.081 69.24 104.588 69.24H104.508C101.681 68.4933 100.428 64.52 100.748 57.32C100.854 54.3867 101.148 51.2933 101.628 48.04C102.108 44.7333 102.588 41.6667 103.068 38.84C103.228 37.7733 103.361 36.76 103.468 35.8C103.628 34.84 103.761 33.9867 103.868 33.24H103.788C102.934 33.6133 101.761 35.1333 100.268 37.8C98.7742 40.4133 97.1475 43.8267 95.3875 48.04C94.6408 49.8533 93.9475 51.6667 93.3075 53.48C92.6675 55.24 92.1075 56.8933 91.6275 58.44C91.1475 59.9333 90.7475 61.2667 90.4275 62.44C90.1608 63.56 90.0275 64.36 90.0275 64.84C90.0275 65.2667 89.8142 65.48 89.3875 65.48C89.2808 65.48 89.2008 65.4533 89.1475 65.4L89.0675 65.48C88.9608 65.48 88.7742 65.5067 88.5075 65.56C88.2942 65.56 88.0008 65.56 87.6275 65.56C87.0942 65.56 86.5342 65.5067 85.9475 65.4C85.4142 65.2933 84.9608 65.08 84.5875 64.76C84.1608 64.3867 83.9475 63.9067 83.9475 63.32V32.52C83.9475 31.6667 84.4008 31.24 85.3075 31.24C85.6275 31.24 86.0275 31.3467 86.5075 31.56C87.0408 31.72 87.5208 31.96 87.9475 32.28C88.4275 32.5467 88.8275 32.8667 89.1475 33.24C89.4675 33.56 89.6275 33.88 89.6275 34.2C89.6275 34.2533 89.6275 34.9733 89.6275 36.36C89.6275 37.6933 89.6008 39.4267 89.5475 41.56C89.5475 43.6933 89.5475 46.04 89.5475 48.6C89.5475 51.16 89.5475 53.64 89.5475 56.04C90.1342 54.0133 90.8808 51.8 91.7875 49.4C92.7475 47 93.7608 44.76 94.8275 42.68C96.6408 39.0533 98.3475 36.12 99.9475 33.88C101.868 31.2667 103.441 29.96 104.668 29.96H104.748C104.748 29.96 105.014 29.9867 105.548 30.04C106.081 30.04 106.641 30.12 107.228 30.28C107.814 30.3867 108.348 30.5733 108.828 30.84C109.361 31.1067 109.628 31.48 109.628 31.96C109.628 32.6 109.494 33.8 109.228 35.56C109.014 37.2667 108.721 39.32 108.348 41.72C107.974 44.12 107.601 46.6267 107.228 49.24C106.908 51.8533 106.614 54.3067 106.348 56.6C106.188 58.2533 106.081 59.6133 106.028 60.68C105.974 61.6933 105.948 62.52 105.948 63.16C105.948 63.8 105.974 64.2533 106.028 64.52C106.081 64.7867 106.134 64.9733 106.188 65.08C106.294 65.0267 106.481 64.8933 106.748 64.68C107.068 64.4133 107.468 63.9333 107.948 63.24C108.481 62.4933 109.148 61.4533 109.948 60.12C110.801 58.7333 111.788 56.92 112.908 54.68C114.134 52.1733 115.361 49.5333 116.588 46.76C117.868 43.9333 118.908 41.4 119.708 39.16C119.814 38.8933 119.894 38.68 119.948 38.52C120.054 38.3067 120.134 38.12 120.188 37.96C120.241 37.7467 120.294 37.5867 120.348 37.48C120.401 37.32 120.508 37.2133 120.668 37.16C120.828 37.0533 120.961 37.0533 121.068 37.16ZM142.187 37.16C142.56 37.2667 142.694 37.5067 142.587 37.88C142.48 38.1467 142.374 38.4133 142.267 38.68C142.16 38.9467 142.054 39.24 141.947 39.56C141.467 40.8933 140.72 42.84 139.707 45.4C138.747 47.96 137.654 50.6267 136.427 53.4C135.414 55.6933 134.454 57.7467 133.547 59.56C132.64 61.32 131.814 62.84 131.067 64.12C128.987 67.5333 127.2 69.24 125.707 69.24C124 69.24 122.587 68.6 121.467 67.32C119.067 64.6 117.974 58.5467 118.187 49.16C118.294 45.1067 118.587 40.84 119.067 36.36C119.547 31.8267 120.054 27.4533 120.587 23.24C120.747 21.6933 120.907 20.2 121.067 18.76C121.28 17.2667 121.44 15.8267 121.547 14.44C120.214 14.1733 118.907 13.9333 117.627 13.72C116.4 13.4533 115.227 13.2933 114.107 13.24C112.987 13.1867 111.974 13.2667 111.067 13.48C110.16 13.64 109.387 14.04 108.747 14.68C108.48 14.9467 108.214 14.9467 107.947 14.68C107.627 14.36 107.627 14.0933 107.947 13.88C108.64 13.1333 109.494 12.6267 110.507 12.36C111.52 12.0933 112.64 11.9867 113.867 12.04C115.04 12.04 116.294 12.1733 117.627 12.44C118.96 12.6533 120.32 12.92 121.707 13.24C121.867 11.5867 122 10.0667 122.107 8.68C122.214 7.29333 122.267 6.06666 122.267 5C122.267 4.52 122.347 4.17333 122.507 3.96C122.667 3.74666 122.827 3.61333 122.987 3.56C123.627 3.29333 124.534 3.72 125.707 4.84C126.134 5.21333 126.48 5.56 126.747 5.88C127.014 6.14667 127.147 6.30667 127.147 6.36C127.254 6.46666 127.307 6.57333 127.307 6.68C127.307 7.85333 127.254 9.08 127.147 10.36C127.094 11.5867 127.014 12.8933 126.907 14.28C128.08 14.4933 129.227 14.6533 130.347 14.76C131.52 14.8133 132.614 14.76 133.627 14.6C134.694 14.44 135.68 14.1733 136.587 13.8C137.547 13.3733 138.427 12.7867 139.227 12.04C139.547 11.72 139.814 11.72 140.027 12.04C140.347 12.2533 140.347 12.52 140.027 12.84C138.854 14.0133 137.547 14.8133 136.107 15.24C134.667 15.6667 133.12 15.88 131.467 15.88C130.72 15.88 129.947 15.8533 129.147 15.8C128.347 15.6933 127.574 15.5867 126.827 15.48C126.614 17.6133 126.374 19.8267 126.107 22.12C125.84 24.4133 125.547 26.76 125.227 29.16C124.8 32.7867 124.374 36.44 123.947 40.12C123.52 43.8 123.254 47.2667 123.147 50.52C123.04 53.72 123.12 56.5467 123.387 59C123.654 61.4 124.24 63.1067 125.147 64.12C125.68 64.76 126.374 65.08 127.227 65.08C127.227 65.08 127.334 65.0267 127.547 64.92C127.814 64.8133 128.187 64.44 128.667 63.8C129.2 63.1067 129.894 62.0667 130.747 60.68C131.654 59.24 132.747 57.24 134.027 54.68C135.254 52.1733 136.48 49.5067 137.707 46.68C138.934 43.8533 139.974 41.32 140.827 39.08C141.254 38.0133 141.467 37.48 141.467 37.48C141.574 37.0533 141.814 36.9467 142.187 37.16ZM173.601 37.16C173.974 37.2667 174.107 37.5067 174.001 37.88C173.894 38.1467 173.787 38.4133 173.681 38.68C173.574 38.9467 173.467 39.24 173.361 39.56C172.881 40.8933 172.134 42.84 171.121 45.4C170.161 47.96 169.067 50.6267 167.841 53.4C166.827 55.6933 165.867 57.7467 164.961 59.56C164.107 61.32 163.281 62.84 162.481 64.12C160.401 67.5333 158.614 69.24 157.121 69.24H156.961C154.187 68.5467 152.801 65.1333 152.801 59C152.801 57.7733 152.854 56.5467 152.961 55.32C153.067 54.04 153.201 52.76 153.361 51.48L152.321 53.24C151.094 55.1067 149.707 56.5467 148.161 57.56C146.667 58.52 145.121 59 143.521 59C141.227 59 139.467 58.1467 138.241 56.44C137.174 54.9467 136.641 52.9733 136.641 50.52C136.641 48.5467 136.961 46.5467 137.601 44.52C138.241 42.44 139.147 40.52 140.321 38.76C141.654 36.7867 143.147 35.2667 144.801 34.2C146.454 33.1333 148.161 32.6 149.921 32.6C152.107 32.6 153.734 33.2667 154.801 34.6L155.521 35.72C155.574 35.6667 155.601 35.64 155.601 35.64C155.654 35.5867 155.681 35.56 155.681 35.56H156.001C156.054 35.56 156.347 35.5867 156.881 35.64C157.414 35.6933 157.947 35.8 158.481 35.96C159.067 36.0667 159.601 36.2533 160.081 36.52C160.561 36.7333 160.801 37.0533 160.801 37.48C160.801 38.12 160.721 39.16 160.561 40.6C160.401 41.9867 160.187 43.6133 159.921 45.48C159.654 47.5067 159.387 49.64 159.121 51.88C158.854 54.0667 158.641 56.12 158.481 58.04C158.374 59.48 158.321 60.6533 158.321 61.56C158.321 62.4133 158.347 63.1067 158.401 63.64C158.454 64.12 158.507 64.4667 158.561 64.68C158.614 64.8933 158.667 65.0267 158.721 65.08C158.774 65.08 158.934 64.9733 159.201 64.76C159.467 64.5467 159.867 64.0933 160.401 63.4C160.934 62.7067 161.601 61.6667 162.401 60.28C163.254 58.8933 164.267 57.0267 165.441 54.68C166.667 52.1733 167.894 49.5333 169.121 46.76C170.401 43.9333 171.441 41.4 172.241 39.16C172.667 38.04 172.881 37.48 172.881 37.48C172.987 37.0533 173.227 36.9467 173.601 37.16ZM142.801 54.76C143.281 55.56 143.867 55.96 144.561 55.96C146.107 55.96 147.441 55.5067 148.561 54.6C149.734 53.6933 150.694 52.5467 151.441 51.16C152.241 49.72 152.881 48.1733 153.361 46.52C153.894 44.8667 154.294 43.32 154.561 41.88C154.721 39.5333 154.401 37.7467 153.601 36.52C153.121 35.88 152.454 35.5333 151.601 35.48C151.494 35.48 151.414 35.48 151.361 35.48C151.307 35.4267 151.227 35.4 151.121 35.4C149.734 35.4 148.534 35.8533 147.521 36.76C146.507 37.6133 145.707 38.4933 145.121 39.4C144.321 40.6267 143.681 41.9867 143.201 43.48C142.721 44.9733 142.374 46.44 142.161 47.88C142.001 49.2667 141.974 50.5733 142.081 51.8C142.187 53.0267 142.427 54.0133 142.801 54.76ZM197.007 37.16C197.434 37.2667 197.54 37.5067 197.327 37.88C197.327 37.88 197.194 38.28 196.927 39.08C196.66 39.8267 196.287 40.84 195.807 42.12C195.327 43.3467 194.74 44.76 194.047 46.36C193.407 47.9067 192.687 49.5067 191.887 51.16C187.46 60.2267 183.407 64.76 179.727 64.76C175.78 64.76 172.794 63.3733 170.767 60.6C168.954 58.2533 168.047 55.1333 168.047 51.24C168.047 49 168.34 46.7333 168.927 44.44C169.567 42.1467 170.42 40.0667 171.487 38.2C172.714 36.1733 174.074 34.6267 175.567 33.56C177.114 32.44 178.714 31.88 180.367 31.88C182.66 31.88 184.367 32.3333 185.487 33.24C186.554 34.1467 187.087 35.24 187.087 36.52C187.087 37.5867 186.74 38.4933 186.047 39.24C185.354 39.9867 184.527 40.36 183.567 40.36C183.247 40.36 183.06 40.28 183.007 40.12C182.954 39.9067 182.954 39.6933 183.007 39.48C183.22 39.1067 183.487 38.4667 183.807 37.56C184.127 36.6533 184.127 35.9067 183.807 35.32C183.487 34.8933 182.927 34.68 182.127 34.68C179.674 34.68 177.487 36.4133 175.567 39.88C174.82 41.2667 174.207 42.76 173.727 44.36C173.3 45.96 173.034 47.56 172.927 49.16C172.82 50.8667 172.9 52.44 173.167 53.88C173.434 55.32 173.887 56.5467 174.527 57.56C175.914 59.7467 178.154 60.76 181.247 60.6C182.207 60.6 183.38 59.88 184.767 58.44C186.154 57 187.647 54.9733 189.247 52.36C190.58 50.12 191.86 47.6933 193.087 45.08C194.367 42.4133 195.407 39.88 196.207 37.48C196.42 37.1067 196.687 37 197.007 37.16ZM218.046 37.16C218.42 37.2667 218.553 37.5067 218.446 37.88C218.34 38.1467 218.233 38.4133 218.126 38.68C218.02 38.9467 217.913 39.24 217.806 39.56C217.326 40.8933 216.58 42.84 215.566 45.4C214.606 47.96 213.513 50.6267 212.286 53.4C211.273 55.6933 210.313 57.7467 209.406 59.56C208.5 61.32 207.673 62.84 206.926 64.12C204.846 67.5333 203.06 69.24 201.566 69.24C199.86 69.24 198.446 68.6 197.326 67.32C194.926 64.6 193.833 58.5467 194.046 49.16C194.153 45.1067 194.446 40.84 194.926 36.36C195.406 31.8267 195.913 27.4533 196.446 23.24C196.606 21.6933 196.766 20.2 196.926 18.76C197.14 17.2667 197.3 15.8267 197.406 14.44C196.073 14.1733 194.766 13.9333 193.486 13.72C192.26 13.4533 191.086 13.2933 189.966 13.24C188.846 13.1867 187.833 13.2667 186.926 13.48C186.02 13.64 185.246 14.04 184.606 14.68C184.34 14.9467 184.073 14.9467 183.806 14.68C183.486 14.36 183.486 14.0933 183.806 13.88C184.5 13.1333 185.353 12.6267 186.366 12.36C187.38 12.0933 188.5 11.9867 189.726 12.04C190.9 12.04 192.153 12.1733 193.486 12.44C194.82 12.6533 196.18 12.92 197.566 13.24C197.726 11.5867 197.86 10.0667 197.966 8.68C198.073 7.29333 198.126 6.06666 198.126 5C198.126 4.52 198.206 4.17333 198.366 3.96C198.526 3.74666 198.686 3.61333 198.846 3.56C199.486 3.29333 200.393 3.72 201.566 4.84C201.993 5.21333 202.34 5.56 202.606 5.88C202.873 6.14667 203.006 6.30667 203.006 6.36C203.113 6.46666 203.166 6.57333 203.166 6.68C203.166 7.85333 203.113 9.08 203.006 10.36C202.953 11.5867 202.873 12.8933 202.766 14.28C203.94 14.4933 205.086 14.6533 206.206 14.76C207.38 14.8133 208.473 14.76 209.486 14.6C210.553 14.44 211.54 14.1733 212.446 13.8C213.406 13.3733 214.286 12.7867 215.086 12.04C215.406 11.72 215.673 11.72 215.886 12.04C216.206 12.2533 216.206 12.52 215.886 12.84C214.713 14.0133 213.406 14.8133 211.966 15.24C210.526 15.6667 208.98 15.88 207.326 15.88C206.58 15.88 205.806 15.8533 205.006 15.8C204.206 15.6933 203.433 15.5867 202.686 15.48C202.473 17.6133 202.233 19.8267 201.966 22.12C201.7 24.4133 201.406 26.76 201.086 29.16C200.66 32.7867 200.233 36.44 199.806 40.12C199.38 43.8 199.113 47.2667 199.006 50.52C198.9 53.72 198.98 56.5467 199.246 59C199.513 61.4 200.1 63.1067 201.006 64.12C201.54 64.76 202.233 65.08 203.086 65.08C203.086 65.08 203.193 65.0267 203.406 64.92C203.673 64.8133 204.046 64.44 204.526 63.8C205.06 63.1067 205.753 62.0667 206.606 60.68C207.513 59.24 208.606 57.24 209.886 54.68C211.113 52.1733 212.34 49.5067 213.566 46.68C214.793 43.8533 215.833 41.32 216.686 39.08C217.113 38.0133 217.326 37.48 217.326 37.48C217.433 37.0533 217.673 36.9467 218.046 37.16ZM249.3 37.32C249.513 36.9467 249.78 36.92 250.1 37.24C250.367 37.4 250.393 37.6933 250.18 38.12C245.913 43.1867 241.567 46.36 237.14 47.64C236.927 47.7467 236.713 47.8267 236.5 47.88C236.34 47.88 236.18 47.9067 236.02 47.96C235.807 50.36 235.38 52.68 234.74 54.92C234.153 57.1067 233.353 59.0533 232.34 60.76C231.327 62.4667 230.127 63.8267 228.74 64.84C227.353 65.8533 225.78 66.36 224.02 66.36C222.42 66.36 221.033 66.1467 219.86 65.72C218.74 65.2933 217.753 64.76 216.9 64.12C216.1 63.48 215.433 62.76 214.9 61.96C214.42 61.16 214.02 60.36 213.7 59.56C212.953 57.8 212.553 55.7733 212.5 53.48C212.5 51.1867 212.793 48.7867 213.38 46.28C213.807 44.7333 214.313 43.2667 214.9 41.88C215.54 40.44 216.233 39.1067 216.98 37.88C216.873 37.6133 216.74 37.3733 216.58 37.16C216.42 36.9467 216.287 36.7067 216.18 36.44C215.113 34.2533 214.367 32.12 213.94 30.04C213.567 27.9067 213.567 26.04 213.94 24.44C214.74 21.24 216.74 19.64 219.94 19.64C225.22 19.64 229.353 22.28 232.34 27.56C233.567 29.8 234.5 32.36 235.14 35.24C235.833 38.0667 236.18 41.08 236.18 44.28C236.18 44.4933 236.153 44.7067 236.1 44.92C236.1 45.1333 236.1 45.3467 236.1 45.56C236.367 45.5067 236.607 45.48 236.82 45.48C237.033 45.4267 237.247 45.3733 237.46 45.32C241.46 44.36 245.407 41.6933 249.3 37.32ZM231.3 48.28C229.487 48.12 227.673 47.5867 225.86 46.68C225.167 46.3067 224.473 45.9067 223.78 45.48C223.14 45.0533 222.527 44.5467 221.94 43.96C221.247 45.5067 220.66 47.2133 220.18 49.08C219.593 51.5867 219.247 53.8533 219.14 55.88C219.087 57.8533 219.327 59.48 219.86 60.76C220.66 62.7333 222.18 63.72 224.42 63.72C225.06 63.72 225.647 63.56 226.18 63.24C226.713 62.92 227.167 62.4933 227.54 61.96C227.967 61.4267 228.34 60.84 228.66 60.2C228.98 59.56 229.247 58.9467 229.46 58.36C230.42 55.5867 231.033 52.2267 231.3 48.28ZM228.58 29.24C228.26 28.3867 227.833 27.5333 227.3 26.68C226.82 25.8267 226.26 25.0533 225.62 24.36C224.98 23.6133 224.233 23.0267 223.38 22.6C222.527 22.12 221.593 21.88 220.58 21.88C218.34 21.88 216.98 22.8933 216.5 24.92C216.18 26.2 216.207 27.72 216.58 29.48C216.953 31.1867 217.647 32.9733 218.66 34.84C218.713 35.1067 218.82 35.2933 218.98 35.4C219.087 35.2933 219.167 35.2133 219.22 35.16C219.327 35.0533 219.433 34.9467 219.54 34.84C219.807 34.5733 220.073 34.5733 220.34 34.84C220.5 34.9467 220.793 35.1867 221.22 35.56C221.647 35.9333 222.073 36.36 222.5 36.84C222.927 37.32 223.3 37.8267 223.62 38.36C223.993 38.84 224.18 39.32 224.18 39.8C224.18 39.96 224.1 40.12 223.94 40.28C223.78 40.44 223.593 40.7067 223.38 41.08C224.66 42.3067 226.02 43.2667 227.46 43.96C228.74 44.7067 230.047 45.1867 231.38 45.4C231.38 42.36 231.14 39.4533 230.66 36.68C230.18 33.9067 229.487 31.4267 228.58 29.24Z" fill="#FAFAD2"/>
</svg>
