<svg width="258" height="84" viewBox="0 0 258 84" fill="none" xmlns="http://www.w3.org/2000/svg">
<path d="M43.36 57.2C43.8933 58 44.24 59.0133 44.4 60.24C44.56 61.4667 44.5333 62.8 44.32 64.24C44.16 65.68 43.8133 67.1733 43.28 68.72C42.8 70.32 42.16 71.8667 41.36 73.36C39.6533 76.5067 37.5733 78.96 35.12 80.72C32.08 82.8533 28.8267 83.92 25.36 83.92C21.4133 83.92 17.84 83.2267 14.64 81.84C11.44 80.5067 8.66667 78.56 6.32 76C4.29333 73.7067 2.72 71.0667 1.6 68.08C0.533333 65.1467 0 62.0267 0 58.72C0 55.68 0.48 52.7733 1.44 50C2.45333 47.2267 3.89333 44.7733 5.76 42.64C8.96 38.8533 13.0933 36.56 18.16 35.76C16.2933 34.96 14.72 33.76 13.44 32.16C11.4133 29.5467 10.4 26.2133 10.4 22.16C10.4 19.6533 10.8 17.2 11.6 14.8C12.4533 12.4 13.6533 10.2667 15.2 8.39999C15.84 7.65333 16.5867 6.88 17.44 6.08C18.3467 5.28 19.3867 4.56 20.56 3.92C21.7333 3.28 23.04 2.77333 24.48 2.4C25.9733 1.97333 27.6533 1.75999 29.52 1.75999C34.2667 1.75999 37.9733 2.93333 40.64 5.28C41.8133 6.34666 42.6933 7.57333 43.28 8.96C43.92 10.2933 44.24 11.7333 44.24 13.28C44.24 14.8267 43.92 16.32 43.28 17.76C42.6933 19.2 41.8667 20.4533 40.8 21.52C39.9467 22.4267 38.7467 23.28 37.2 24.08C35.6533 24.88 33.6533 25.28 31.2 25.28C30.8267 25.28 30.64 25.0667 30.64 24.64C30.64 24.2667 30.8267 24.08 31.2 24.08C33.7067 24.08 35.8133 22.9333 37.52 20.64C38.32 19.5733 38.9333 18.4 39.36 17.12C39.7867 15.84 40 14.5333 40 13.2C40 10.5867 39.2 8.4 37.6 6.64C35.68 4.72 33.0133 3.76 29.6 3.76C27.6267 3.76 25.8133 4.34666 24.16 5.52C22.5067 6.64 21.0667 8.10666 19.84 9.92C18.6667 11.7333 17.7333 13.7867 17.04 16.08C16.4 18.32 16.08 20.56 16.08 22.8C16.08 26.4267 16.9333 29.3867 18.64 31.68C20.4533 34.1333 23.1467 35.36 26.72 35.36C27.1467 35.36 27.36 35.5733 27.36 36C27.36 36.3733 27.1467 36.56 26.72 36.56C20.7467 36.56 16 38.9333 12.48 43.68C10.9333 45.7067 9.76 48.08 8.96 50.8C8.16 53.4667 7.76 56.2933 7.76 59.28C7.76 62.2667 8.13333 65.0933 8.88 67.76C9.68 70.3733 10.8 72.72 12.24 74.8C15.4933 79.3867 19.8933 81.68 25.44 81.68C26.24 81.68 27.12 81.5733 28.08 81.36C29.04 81.1467 30.0533 80.7467 31.12 80.16C32.1867 79.5733 33.2533 78.7467 34.32 77.68C35.3867 76.6667 36.4533 75.3333 37.52 73.68C38.96 71.3333 40 68.9333 40.64 66.48C41.3333 64.0267 41.68 61.9467 41.68 60.24C41.68 59.1733 41.5467 58.2933 41.28 57.6C41.12 57.2267 40.9333 57.0133 40.72 56.96C40.56 56.8533 40.4267 56.8 40.32 56.8C39.9467 56.8 39.76 56.6133 39.76 56.24C39.76 55.92 39.9467 55.7067 40.32 55.6C41.6 55.4933 42.6133 56.0267 43.36 57.2ZM75.6488 34.16C76.0221 34.2667 76.1554 34.5067 76.0488 34.88L75.4088 36.56C74.9288 37.8933 74.1821 39.84 73.1688 42.4C72.2088 44.96 71.1154 47.6267 69.8888 50.4C68.9288 52.6933 67.9954 54.7467 67.0888 56.56C66.1821 58.32 65.3288 59.84 64.5288 61.12C62.4488 64.5333 60.6621 66.24 59.1688 66.24C56.0754 66.24 53.6754 63.5733 51.9688 58.24C51.2221 56 50.6621 53.36 50.2888 50.32C49.9154 47.28 49.7288 44 49.7288 40.48C49.7288 35.68 50.0754 31.0133 50.7688 26.48C51.4621 21.9467 52.4221 17.8933 53.6488 14.32C55.1421 10.0533 56.9021 6.82666 58.9288 4.64C60.9554 2.45333 63.2488 1.35999 65.8088 1.35999C67.4088 1.35999 68.6354 2.02666 69.4888 3.36C70.1821 4.64 70.5288 6.21333 70.5288 8.08C70.5288 10.16 70.1554 12.48 69.4088 15.04C68.6621 17.6 67.6488 20 66.3688 22.24C65.1421 24.4267 63.6754 26.2933 61.9688 27.84C60.3154 29.3333 58.5821 30.08 56.7688 30.08C56.3954 30.08 56.2088 29.8933 56.2088 29.52C56.2088 29.0933 56.3954 28.88 56.7688 28.88C57.8888 28.88 59.0621 28.2133 60.2888 26.88C61.5688 25.4933 62.8221 23.5467 64.0488 21.04C65.1154 18.7467 65.9688 16.3733 66.6088 13.92C67.3021 11.4133 67.6488 9.28 67.6488 7.52C67.6488 6.29333 67.4888 5.36 67.1688 4.72C66.8488 4.13333 66.4221 3.84 65.8888 3.84C64.3421 3.84 62.8754 4.88 61.4888 6.96C60.1554 8.98667 58.9554 11.92 57.8888 15.76C56.9821 19.1733 56.2621 23.0667 55.7288 27.44C55.1954 31.8133 54.9288 36.1867 54.9288 40.56C54.9288 43.76 55.0621 46.6933 55.3288 49.36C55.5954 52.0267 55.9688 54.2933 56.4488 56.16C56.9821 58.0267 57.5954 59.4933 58.2888 60.56C59.0354 61.5733 59.8354 62.08 60.6888 62.08C60.6888 62.08 60.7954 62.0267 61.0088 61.92C61.2754 61.8133 61.6488 61.44 62.1288 60.8C62.6621 60.1067 63.3554 59.0667 64.2088 57.68C65.1154 56.24 66.2088 54.24 67.4888 51.68C68.7154 49.1733 69.9421 46.5333 71.1688 43.76C72.3954 40.9333 73.4354 38.4 74.2888 36.16C74.3954 35.8933 74.4754 35.68 74.5288 35.52C74.6354 35.3067 74.7154 35.12 74.7688 34.96C74.8221 34.7467 74.8754 34.5867 74.9288 34.48C75.0354 34.0533 75.2754 33.9467 75.6488 34.16ZM99.5963 34.16C99.9696 34.2667 100.103 34.5067 99.9963 34.88C99.9963 34.88 99.8629 35.28 99.5963 36.08C99.3296 36.8267 98.9296 37.84 98.3963 39.12C97.9163 40.3467 97.3296 41.76 96.6363 43.36C95.9963 44.9067 95.2763 46.5067 94.4763 48.16C90.0496 57.2267 86.0229 61.76 82.3963 61.76C78.3429 61.76 75.1963 60.2667 72.9563 57.28C71.0896 54.7733 70.1562 51.4667 70.1562 47.36C70.1562 45.1733 70.4229 42.9867 70.9563 40.8C71.5429 38.56 72.3429 36.56 73.3563 34.8C74.4229 33.04 75.6763 31.6 77.1163 30.48C78.5563 29.36 80.1296 28.8 81.8363 28.8C83.7563 28.8 85.1963 29.5467 86.1563 31.04C87.1163 32.32 87.5963 33.9733 87.5963 36C87.5963 39.0933 86.6363 41.84 84.7163 44.24C83.9696 45.2 82.8763 46.1333 81.4363 47.04C80.0496 47.9467 78.2363 48.4 75.9963 48.4C75.6229 48.4 75.4362 48.1867 75.4362 47.76C75.4362 47.3867 75.6229 47.2 75.9963 47.2C76.9563 47.2 77.9429 46.7733 78.9563 45.92C80.0229 45.0133 81.0096 43.76 81.9162 42.16C82.7163 40.7733 83.3563 39.3067 83.8363 37.76C84.3696 36.16 84.6363 34.8 84.6363 33.68C84.6363 33.04 84.5296 32.5067 84.3163 32.08C84.1563 31.8133 83.9163 31.68 83.5963 31.68C81.2496 31.68 79.2229 33.2267 77.5163 36.32C76.8229 37.5467 76.2629 38.96 75.8363 40.56C75.4096 42.16 75.1429 43.7867 75.0363 45.44C74.9296 47.04 75.0096 48.64 75.2763 50.24C75.5963 51.7867 76.1296 53.1467 76.8763 54.32C78.3696 56.6667 80.6896 57.76 83.8363 57.6H83.9163C84.8229 57.6 85.9696 56.88 87.3563 55.44C88.7963 54 90.2896 51.9733 91.8363 49.36C93.1696 47.12 94.4496 44.6933 95.6763 42.08C96.9563 39.4133 98.0229 36.88 98.8763 34.48C98.9829 34.0533 99.2229 33.9467 99.5963 34.16ZM146.863 34.16C147.236 34.2667 147.369 34.5067 147.263 34.88L146.623 36.56C146.143 37.8933 145.396 39.84 144.383 42.4C143.423 44.96 142.329 47.6267 141.102 50.4C140.089 52.6933 139.129 54.7467 138.223 56.56C137.316 58.32 136.489 59.84 135.743 61.12C133.663 64.5333 131.876 66.24 130.383 66.24H130.223C127.449 65.5467 126.223 61.5733 126.543 54.32C126.649 51.3867 126.943 48.2933 127.423 45.04C127.903 41.7333 128.356 38.6667 128.783 35.84C128.943 34.7733 129.103 33.76 129.263 32.8C129.423 31.84 129.556 30.9867 129.663 30.24H129.583C128.676 30.6133 127.476 32.1333 125.983 34.8C124.489 37.4133 122.889 40.8267 121.183 45.04C120.436 46.8533 119.716 48.6667 119.023 50.48C118.383 52.24 117.823 53.8933 117.343 55.44C116.863 56.9333 116.463 58.2667 116.143 59.44C115.876 60.56 115.743 61.36 115.743 61.84V62C115.743 62.1067 115.743 62.1867 115.743 62.24C115.796 62.24 115.823 62.2667 115.823 62.32C115.929 62.5333 115.956 62.7467 115.903 62.96C115.849 63.0133 115.689 63.12 115.423 63.28C115.369 63.28 115.289 63.3067 115.182 63.36C115.076 63.36 114.889 63.36 114.622 63.36C114.196 63.36 113.689 63.3067 113.103 63.2C112.516 63.0933 111.956 62.8267 111.423 62.4C111.423 62.3467 111.396 62.2933 111.343 62.24C110.969 61.5467 110.729 60.48 110.623 59.04C110.516 57.6 110.489 55.9467 110.543 54.08C110.596 52.2133 110.703 50.2133 110.863 48.08C111.076 45.9467 111.263 43.84 111.423 41.76C111.529 40.64 111.609 39.5733 111.663 38.56C111.769 37.5467 111.849 36.6133 111.903 35.76C111.743 35.76 111.609 35.7867 111.503 35.84C110.649 36.2133 109.556 37.4667 108.223 39.6C106.889 41.7333 105.449 44.48 103.903 47.84C103.476 48.9067 103.049 49.9467 102.623 50.96C102.249 51.9733 101.876 52.96 101.503 53.92V61.84C101.503 62.16 101.316 62.3733 100.943 62.48C100.889 62.48 100.729 62.5067 100.463 62.56C100.196 62.56 99.8758 62.56 99.5025 62.56C99.0225 62.56 98.4892 62.5067 97.9025 62.4C97.3158 62.2933 96.8358 62.08 96.4625 61.76C96.0358 61.3333 95.8225 60.8533 95.8225 60.32V29.52C95.8225 28.6667 96.2758 28.24 97.1825 28.24C97.5025 28.24 97.9025 28.3467 98.3825 28.56C98.9158 28.72 99.3958 28.96 99.8225 29.28C100.303 29.5467 100.703 29.8667 101.023 30.24C101.343 30.56 101.503 30.88 101.503 31.2V46.32C101.769 45.68 102.063 45.04 102.383 44.4C102.756 43.76 103.129 43.0933 103.503 42.4C103.823 41.8133 104.303 40.9867 104.943 39.92C105.636 38.8 106.409 37.7067 107.263 36.64C108.116 35.52 108.996 34.56 109.903 33.76C110.863 32.96 111.769 32.56 112.623 32.56H112.863C113.129 32.56 113.503 32.5867 113.983 32.64C114.516 32.6933 115.023 32.8 115.503 32.96C116.036 33.12 116.489 33.3333 116.863 33.6C117.236 33.8133 117.423 34.1067 117.423 34.48C117.423 35.1733 117.343 36.2933 117.183 37.84C117.076 39.3867 116.943 41.12 116.783 43.04L116.063 50.72C116.649 48.9067 117.343 47.04 118.143 45.12C118.943 43.2 119.769 41.3867 120.623 39.68C121.476 37.92 122.329 36.2933 123.183 34.8C124.089 33.3067 124.943 32 125.743 30.88C127.663 28.2667 129.236 26.96 130.463 26.96H130.543C131.449 27.0133 132.249 27.12 132.943 27.28C133.529 27.3867 134.063 27.6 134.543 27.92C135.076 28.1867 135.343 28.5333 135.343 28.96C135.343 29.6 135.209 30.8 134.943 32.56C134.729 34.2667 134.463 36.32 134.143 38.72C133.769 41.12 133.396 43.6267 133.023 46.24C132.703 48.8533 132.409 51.3067 132.143 53.6C131.983 55.2533 131.876 56.6133 131.823 57.68C131.769 58.6933 131.743 59.52 131.743 60.16C131.743 60.8 131.769 61.2533 131.823 61.52C131.876 61.7867 131.929 61.9733 131.983 62.08C132.089 62.0267 132.276 61.8933 132.543 61.68C132.863 61.4133 133.263 60.9333 133.743 60.24C134.276 59.4933 134.943 58.4533 135.743 57.12C136.596 55.7333 137.583 53.92 138.703 51.68C139.929 49.1733 141.156 46.5333 142.383 43.76C143.609 40.9333 144.649 38.4 145.503 36.16C145.929 35.04 146.143 34.48 146.143 34.48C146.249 34.0533 146.489 33.9467 146.863 34.16ZM170.768 34.16C171.141 34.2667 171.275 34.5067 171.168 34.88C171.168 34.88 171.035 35.28 170.768 36.08C170.501 36.8267 170.101 37.84 169.568 39.12C169.088 40.3467 168.501 41.76 167.808 43.36C167.168 44.9067 166.448 46.5067 165.648 48.16C161.221 57.2267 157.195 61.76 153.568 61.76C149.515 61.76 146.368 60.2667 144.128 57.28C142.261 54.7733 141.328 51.4667 141.328 47.36C141.328 45.1733 141.595 42.9867 142.128 40.8C142.715 38.56 143.515 36.56 144.528 34.8C145.595 33.04 146.848 31.6 148.288 30.48C149.728 29.36 151.301 28.8 153.008 28.8C154.928 28.8 156.368 29.5467 157.328 31.04C158.288 32.32 158.768 33.9733 158.768 36C158.768 39.0933 157.808 41.84 155.888 44.24C155.141 45.2 154.048 46.1333 152.608 47.04C151.221 47.9467 149.408 48.4 147.168 48.4C146.795 48.4 146.608 48.1867 146.608 47.76C146.608 47.3867 146.795 47.2 147.168 47.2C148.128 47.2 149.115 46.7733 150.128 45.92C151.195 45.0133 152.181 43.76 153.088 42.16C153.888 40.7733 154.528 39.3067 155.008 37.76C155.541 36.16 155.808 34.8 155.808 33.68C155.808 33.04 155.701 32.5067 155.488 32.08C155.328 31.8133 155.088 31.68 154.768 31.68C152.421 31.68 150.395 33.2267 148.688 36.32C147.995 37.5467 147.435 38.96 147.008 40.56C146.581 42.16 146.315 43.7867 146.208 45.44C146.101 47.04 146.181 48.64 146.448 50.24C146.768 51.7867 147.301 53.1467 148.048 54.32C149.541 56.6667 151.861 57.76 155.008 57.6H155.088C155.995 57.6 157.141 56.88 158.528 55.44C159.968 54 161.461 51.9733 163.008 49.36C164.341 47.12 165.621 44.6933 166.848 42.08C168.128 39.4133 169.195 36.88 170.048 34.48C170.155 34.0533 170.395 33.9467 170.768 34.16ZM204.114 34.16C204.488 34.2667 204.621 34.5067 204.514 34.88L203.874 36.56C203.394 37.8933 202.648 39.84 201.634 42.4C200.674 44.96 199.581 47.6267 198.354 50.4C197.394 52.6933 196.461 54.7467 195.554 56.56C194.648 58.32 193.794 59.84 192.994 61.12C190.914 64.5333 189.128 66.24 187.634 66.24H187.554C184.728 65.4933 183.474 61.52 183.794 54.32C183.901 51.3867 184.194 48.2933 184.674 45.04C185.154 41.7333 185.634 38.6667 186.114 35.84C186.274 34.7733 186.408 33.76 186.514 32.8C186.674 31.84 186.808 30.9867 186.914 30.24H186.834C185.981 30.6133 184.808 32.1333 183.314 34.8C181.821 37.4133 180.194 40.8267 178.434 45.04C177.688 46.8533 176.994 48.6667 176.354 50.48C175.714 52.24 175.154 53.8933 174.674 55.44C174.194 56.9333 173.794 58.2667 173.474 59.44C173.208 60.56 173.074 61.36 173.074 61.84C173.074 62.2667 172.861 62.48 172.434 62.48C172.328 62.48 172.248 62.4533 172.194 62.4L172.114 62.48C172.008 62.48 171.821 62.5067 171.554 62.56C171.341 62.56 171.048 62.56 170.674 62.56C170.141 62.56 169.581 62.5067 168.994 62.4C168.461 62.2933 168.008 62.08 167.634 61.76C167.208 61.3867 166.994 60.9067 166.994 60.32V29.52C166.994 28.6667 167.448 28.24 168.354 28.24C168.674 28.24 169.074 28.3467 169.554 28.56C170.088 28.72 170.568 28.96 170.994 29.28C171.474 29.5467 171.874 29.8667 172.194 30.24C172.514 30.56 172.674 30.88 172.674 31.2C172.674 31.2533 172.674 31.9733 172.674 33.36C172.674 34.6933 172.648 36.4267 172.594 38.56C172.594 40.6933 172.594 43.04 172.594 45.6C172.594 48.16 172.594 50.64 172.594 53.04C173.181 51.0133 173.928 48.8 174.834 46.4C175.794 44 176.808 41.76 177.874 39.68C179.688 36.0533 181.394 33.12 182.994 30.88C184.914 28.2667 186.488 26.96 187.714 26.96H187.794C187.794 26.96 188.061 26.9867 188.594 27.04C189.128 27.04 189.688 27.12 190.274 27.28C190.861 27.3867 191.394 27.5733 191.874 27.84C192.408 28.1067 192.674 28.48 192.674 28.96C192.674 29.6 192.541 30.8 192.274 32.56C192.061 34.2667 191.768 36.32 191.394 38.72C191.021 41.12 190.648 43.6267 190.274 46.24C189.954 48.8533 189.661 51.3067 189.394 53.6C189.234 55.2533 189.128 56.6133 189.074 57.68C189.021 58.6933 188.994 59.52 188.994 60.16C188.994 60.8 189.021 61.2533 189.074 61.52C189.128 61.7867 189.181 61.9733 189.234 62.08C189.341 62.0267 189.528 61.8933 189.794 61.68C190.114 61.4133 190.514 60.9333 190.994 60.24C191.528 59.4933 192.194 58.4533 192.994 57.12C193.848 55.7333 194.834 53.92 195.954 51.68C197.181 49.1733 198.408 46.5333 199.634 43.76C200.914 40.9333 201.954 38.4 202.754 36.16C202.861 35.8933 202.941 35.68 202.994 35.52C203.101 35.3067 203.181 35.12 203.234 34.96C203.288 34.7467 203.341 34.5867 203.394 34.48C203.448 34.32 203.554 34.2133 203.714 34.16C203.874 34.0533 204.008 34.0533 204.114 34.16ZM225.234 34.16C225.607 34.2667 225.74 34.5067 225.634 34.88C225.527 35.1467 225.42 35.4133 225.314 35.68C225.207 35.9467 225.1 36.24 224.994 36.56C224.514 37.8933 223.767 39.84 222.754 42.4C221.794 44.96 220.7 47.6267 219.474 50.4C218.46 52.6933 217.5 54.7467 216.594 56.56C215.687 58.32 214.86 59.84 214.114 61.12C212.034 64.5333 210.247 66.24 208.754 66.24C207.047 66.24 205.634 65.6 204.514 64.32C202.114 61.6 201.02 55.5467 201.234 46.16C201.34 42.1067 201.634 37.84 202.114 33.36C202.594 28.8267 203.1 24.4533 203.634 20.24C203.794 18.6933 203.954 17.2 204.114 15.76C204.327 14.2667 204.487 12.8267 204.594 11.44C203.26 11.1733 201.954 10.9333 200.674 10.72C199.447 10.4533 198.274 10.2933 197.154 10.24C196.034 10.1867 195.02 10.2667 194.114 10.48C193.207 10.64 192.434 11.04 191.794 11.68C191.527 11.9467 191.26 11.9467 190.994 11.68C190.674 11.36 190.674 11.0933 190.994 10.88C191.687 10.1333 192.54 9.62666 193.554 9.36C194.567 9.09333 195.687 8.98666 196.914 9.04C198.087 9.04 199.34 9.17333 200.674 9.44C202.007 9.65333 203.367 9.92 204.754 10.24C204.914 8.58666 205.047 7.06666 205.154 5.68C205.26 4.29333 205.314 3.06666 205.314 2C205.314 1.52 205.394 1.17333 205.554 0.959995C205.714 0.746662 205.874 0.613328 206.034 0.559996C206.674 0.293329 207.58 0.719997 208.754 1.84C209.18 2.21333 209.527 2.56 209.794 2.88C210.06 3.14667 210.194 3.30667 210.194 3.36C210.3 3.46666 210.354 3.57333 210.354 3.68C210.354 4.85333 210.3 6.08 210.194 7.36C210.14 8.58667 210.06 9.89333 209.954 11.28C211.127 11.4933 212.274 11.6533 213.394 11.76C214.567 11.8133 215.66 11.76 216.674 11.6C217.74 11.44 218.727 11.1733 219.634 10.8C220.594 10.3733 221.474 9.78666 222.274 9.04C222.594 8.72 222.86 8.72 223.074 9.04C223.394 9.25333 223.394 9.52 223.074 9.84C221.9 11.0133 220.594 11.8133 219.154 12.24C217.714 12.6667 216.167 12.88 214.514 12.88C213.767 12.88 212.994 12.8533 212.194 12.8C211.394 12.6933 210.62 12.5867 209.874 12.48C209.66 14.6133 209.42 16.8267 209.154 19.12C208.887 21.4133 208.594 23.76 208.274 26.16C207.847 29.7867 207.42 33.44 206.994 37.12C206.567 40.8 206.3 44.2667 206.194 47.52C206.087 50.72 206.167 53.5467 206.434 56C206.7 58.4 207.287 60.1067 208.194 61.12C208.727 61.76 209.42 62.08 210.274 62.08C210.274 62.08 210.38 62.0267 210.594 61.92C210.86 61.8133 211.234 61.44 211.714 60.8C212.247 60.1067 212.94 59.0667 213.794 57.68C214.7 56.24 215.794 54.24 217.074 51.68C218.3 49.1733 219.527 46.5067 220.754 43.68C221.98 40.8533 223.02 38.32 223.874 36.08C224.3 35.0133 224.514 34.48 224.514 34.48C224.62 34.0533 224.86 33.9467 225.234 34.16ZM256.488 34.32C256.701 33.9467 256.968 33.92 257.288 34.24C257.554 34.4 257.581 34.6933 257.368 35.12C253.101 40.1867 248.754 43.36 244.328 44.64C244.114 44.7467 243.901 44.8267 243.688 44.88C243.528 44.88 243.368 44.9067 243.207 44.96C242.994 47.36 242.568 49.68 241.928 51.92C241.341 54.1067 240.541 56.0533 239.528 57.76C238.514 59.4667 237.314 60.8267 235.928 61.84C234.541 62.8533 232.968 63.36 231.208 63.36C229.608 63.36 228.221 63.1467 227.048 62.72C225.928 62.2933 224.941 61.76 224.088 61.12C223.288 60.48 222.621 59.76 222.088 58.96C221.608 58.16 221.208 57.36 220.888 56.56C220.141 54.8 219.741 52.7733 219.688 50.48C219.688 48.1867 219.981 45.7867 220.568 43.28C220.994 41.7333 221.501 40.2667 222.088 38.88C222.728 37.44 223.421 36.1067 224.168 34.88C224.061 34.6133 223.928 34.3733 223.768 34.16C223.608 33.9467 223.474 33.7067 223.368 33.44C222.301 31.2533 221.554 29.12 221.128 27.04C220.754 24.9067 220.754 23.04 221.128 21.44C221.928 18.24 223.928 16.64 227.128 16.64C232.408 16.64 236.541 19.28 239.528 24.56C240.754 26.8 241.688 29.36 242.328 32.24C243.021 35.0667 243.368 38.08 243.368 41.28C243.368 41.4933 243.341 41.7067 243.288 41.92C243.288 42.1333 243.288 42.3467 243.288 42.56C243.554 42.5067 243.794 42.48 244.008 42.48C244.221 42.4267 244.434 42.3733 244.648 42.32C248.648 41.36 252.594 38.6933 256.488 34.32ZM238.488 45.28C236.674 45.12 234.861 44.5867 233.048 43.68C232.354 43.3067 231.661 42.9067 230.968 42.48C230.328 42.0533 229.714 41.5467 229.128 40.96C228.434 42.5067 227.848 44.2133 227.368 46.08C226.781 48.5867 226.434 50.8533 226.328 52.88C226.274 54.8533 226.514 56.48 227.048 57.76C227.848 59.7333 229.368 60.72 231.608 60.72C232.248 60.72 232.834 60.56 233.368 60.24C233.901 59.92 234.354 59.4933 234.728 58.96C235.154 58.4267 235.528 57.84 235.848 57.2C236.168 56.56 236.434 55.9467 236.648 55.36C237.608 52.5867 238.221 49.2267 238.488 45.28ZM235.768 26.24C235.448 25.3867 235.021 24.5333 234.488 23.68C234.008 22.8267 233.448 22.0533 232.808 21.36C232.168 20.6133 231.421 20.0267 230.568 19.6C229.714 19.12 228.781 18.88 227.768 18.88C225.528 18.88 224.168 19.8933 223.688 21.92C223.368 23.2 223.394 24.72 223.768 26.48C224.141 28.1867 224.834 29.9733 225.848 31.84C225.901 32.1067 226.008 32.2933 226.168 32.4C226.274 32.2933 226.354 32.2133 226.408 32.16C226.514 32.0533 226.621 31.9467 226.728 31.84C226.994 31.5733 227.261 31.5733 227.528 31.84C227.688 31.9467 227.981 32.1867 228.408 32.56C228.834 32.9333 229.261 33.36 229.688 33.84C230.114 34.32 230.488 34.8267 230.808 35.36C231.181 35.84 231.368 36.32 231.368 36.8C231.368 36.96 231.288 37.12 231.128 37.28C230.968 37.44 230.781 37.7067 230.568 38.08C231.848 39.3067 233.208 40.2667 234.648 40.96C235.928 41.7067 237.234 42.1867 238.568 42.4C238.568 39.36 238.328 36.4533 237.848 33.68C237.368 30.9067 236.674 28.4267 235.768 26.24Z" fill="#FAFAD2"/>
</svg>
