<svg width="37" height="28" viewBox="0 0 37 28" fill="none" xmlns="http://www.w3.org/2000/svg">
<path d="M4.76501 25.3633H32.4488C33.0413 25.3633 33.5887 25.1594 34.0248 24.8182L23.7654 15.0538L22.5982 16.1643C21.4774 17.2306 20.0418 17.7631 18.6061 17.7631C17.1705 17.7631 15.7349 17.2306 14.6141 16.1643L13.4469 15.0538L3.18748 24.8182C3.62379 25.1594 4.17208 25.3633 4.76352 25.3633H4.76501ZM34.9551 23.3657C34.998 23.181 35.0196 22.9884 35.0196 22.7911V4.9796C35.0196 4.78252 34.997 4.58993 34.9551 4.40498L24.9938 13.8847L34.9551 23.3658V23.3657ZM12.22 13.8846L2.25867 4.40491C2.21572 4.5896 2.19412 4.7822 2.19412 4.97953V22.791C2.19412 22.9881 2.21678 23.1807 2.25867 23.3656L12.22 13.8846V13.8846ZM34.025 2.9521C33.5887 2.61091 33.0404 2.40699 32.449 2.40699H4.76521C4.17267 2.40699 3.62522 2.61091 3.18917 2.9521L14.0286 13.2682L14.0355 13.275L15.7838 14.9385C16.5737 15.691 17.5902 16.0672 18.6087 16.0672C19.6262 16.0672 20.6427 15.691 21.4336 14.9385L23.1844 13.2729L23.1867 13.2705L34.0282 2.95246L34.025 2.9521ZM32.449 27.0605H4.76521C3.59014 27.0605 2.52151 26.5799 1.74876 25.8072C0.974941 25.0333 0.494379 23.9658 0.494379 22.7907V4.97922C0.494379 3.80416 0.974941 2.73687 1.74876 1.96278C2.52151 1.18896 3.59014 0.709473 4.76521 0.709473H32.449C33.624 0.709473 34.6927 1.19003 35.4654 1.96278C36.2392 2.7366 36.7198 3.80416 36.7198 4.97922V22.7907C36.7198 23.9658 36.2392 25.0331 35.4654 25.8072C34.6927 26.581 33.624 27.0605 32.449 27.0605Z" fill="#272716"/>
</svg>
