<svg width="187" height="84" viewBox="0 0 187 84" fill="none" xmlns="http://www.w3.org/2000/svg">
<path d="M43.36 57.2C43.8933 58 44.24 59.0133 44.4 60.24C44.56 61.4667 44.5333 62.8 44.32 64.24C44.16 65.68 43.8133 67.1733 43.28 68.72C42.8 70.32 42.16 71.8667 41.36 73.36C39.6533 76.5067 37.5733 78.96 35.12 80.72C32.08 82.8533 28.8267 83.92 25.36 83.92C21.4133 83.92 17.84 83.2267 14.64 81.84C11.44 80.5067 8.66667 78.56 6.32 76C4.29333 73.7067 2.72 71.0667 1.6 68.08C0.533333 65.1467 0 62.0267 0 58.72C0 55.68 0.48 52.7733 1.44 50C2.45333 47.2267 3.89333 44.7733 5.76 42.64C8.96 38.8533 13.0933 36.56 18.16 35.76C16.2933 34.96 14.72 33.76 13.44 32.16C11.4133 29.5467 10.4 26.2133 10.4 22.16C10.4 19.6533 10.8 17.2 11.6 14.8C12.4533 12.4 13.6533 10.2667 15.2 8.39999C15.84 7.65333 16.5867 6.88 17.44 6.08C18.3467 5.28 19.3867 4.56 20.56 3.92C21.7333 3.28 23.04 2.77333 24.48 2.4C25.9733 1.97333 27.6533 1.75999 29.52 1.75999C34.2667 1.75999 37.9733 2.93333 40.64 5.28C41.8133 6.34666 42.6933 7.57333 43.28 8.96C43.92 10.2933 44.24 11.7333 44.24 13.28C44.24 14.8267 43.92 16.32 43.28 17.76C42.6933 19.2 41.8667 20.4533 40.8 21.52C39.9467 22.4267 38.7467 23.28 37.2 24.08C35.6533 24.88 33.6533 25.28 31.2 25.28C30.8267 25.28 30.64 25.0667 30.64 24.64C30.64 24.2667 30.8267 24.08 31.2 24.08C33.7067 24.08 35.8133 22.9333 37.52 20.64C38.32 19.5733 38.9333 18.4 39.36 17.12C39.7867 15.84 40 14.5333 40 13.2C40 10.5867 39.2 8.4 37.6 6.64C35.68 4.72 33.0133 3.76 29.6 3.76C27.6267 3.76 25.8133 4.34666 24.16 5.52C22.5067 6.64 21.0667 8.10666 19.84 9.92C18.6667 11.7333 17.7333 13.7867 17.04 16.08C16.4 18.32 16.08 20.56 16.08 22.8C16.08 26.4267 16.9333 29.3867 18.64 31.68C20.4533 34.1333 23.1467 35.36 26.72 35.36C27.1467 35.36 27.36 35.5733 27.36 36C27.36 36.3733 27.1467 36.56 26.72 36.56C20.7467 36.56 16 38.9333 12.48 43.68C10.9333 45.7067 9.76 48.08 8.96 50.8C8.16 53.4667 7.76 56.2933 7.76 59.28C7.76 62.2667 8.13333 65.0933 8.88 67.76C9.68 70.3733 10.8 72.72 12.24 74.8C15.4933 79.3867 19.8933 81.68 25.44 81.68C26.24 81.68 27.12 81.5733 28.08 81.36C29.04 81.1467 30.0533 80.7467 31.12 80.16C32.1867 79.5733 33.2533 78.7467 34.32 77.68C35.3867 76.6667 36.4533 75.3333 37.52 73.68C38.96 71.3333 40 68.9333 40.64 66.48C41.3333 64.0267 41.68 61.9467 41.68 60.24C41.68 59.1733 41.5467 58.2933 41.28 57.6C41.12 57.2267 40.9333 57.0133 40.72 56.96C40.56 56.8533 40.4267 56.8 40.32 56.8C39.9467 56.8 39.76 56.6133 39.76 56.24C39.76 55.92 39.9467 55.7067 40.32 55.6C41.6 55.4933 42.6133 56.0267 43.36 57.2ZM75.4088 33.44C75.7288 33.6 75.8354 33.8667 75.7288 34.24C74.6088 36.8 72.7954 39.3067 70.2888 41.76C67.7821 44.2133 65.0621 46.64 62.1288 49.04C62.8221 50.6933 63.4621 52.32 64.0488 53.92C64.6888 55.52 65.2488 57.0933 65.7288 58.64C66.0488 59.7067 66.3154 60.9867 66.5288 62.48C66.7954 63.9733 66.9288 65.52 66.9288 67.12C66.9821 68.6667 66.8754 70.1867 66.6088 71.68C66.3421 73.1733 65.8621 74.4533 65.1688 75.52C64.5288 76.5867 63.6488 77.36 62.5288 77.84C61.4088 78.3733 59.9954 78.4533 58.2888 78.08C56.1554 77.6 54.3688 76.7467 52.9288 75.52C51.5421 74.2933 50.5021 72.8533 49.8088 71.2C49.1154 69.5467 48.7154 67.76 48.6088 65.84C48.5554 63.92 48.8221 62.0533 49.4088 60.24C49.9954 58.3733 50.8488 56.64 51.9688 55.04C53.1421 53.3867 54.5821 52 56.2888 50.88L53.6488 44.48C53.0621 43.0933 52.5288 41.8667 52.0488 40.8C51.6221 39.7333 51.2221 38.7467 50.8488 37.84C50.4754 36.88 50.1021 35.9467 49.7288 35.04C49.4088 34.1333 49.0888 33.12 48.7688 32C48.0221 29.44 47.5687 27.52 47.4087 26.24C47.1954 24.9067 47.4087 23.76 48.0488 22.8C48.9021 21.52 50.3688 20.88 52.4488 20.88C53.6221 20.88 54.5288 21.3333 55.1688 22.24C55.7554 23.1467 56.1288 24.08 56.2888 25.04C56.5021 26 56.5288 27.04 56.3688 28.16C56.2621 29.0667 56.1021 30 55.8888 30.96C55.6754 31.92 55.4088 32.9067 55.0888 33.92C55.3021 34.4533 55.4888 34.88 55.6488 35.2C55.8621 35.4667 56.0488 35.7333 56.2088 36C56.3688 36.2667 56.5288 36.56 56.6888 36.88C56.9021 37.2 57.1421 37.6533 57.4088 38.24C58.0488 39.68 58.6888 41.1467 59.3288 42.64C60.0221 44.08 60.6888 45.5733 61.3288 47.12C63.9954 45.0933 66.5021 42.9867 68.8488 40.8C71.1954 38.6133 73.1421 36.24 74.6888 33.68C74.9021 33.36 75.1421 33.28 75.4088 33.44ZM53.3288 57.12C52.1021 58.4533 51.3554 60.08 51.0888 62C50.8221 63.8667 50.8488 65.7067 51.1688 67.52C51.5421 69.28 52.1288 70.88 52.9288 72.32C53.7288 73.76 54.5821 74.6933 55.4888 75.12C56.4488 75.6 57.3554 75.44 58.2088 74.64C59.1154 73.8933 59.8354 72.1867 60.3688 69.52C60.6354 68.24 60.7154 66.9067 60.6088 65.52C60.5021 64.1333 60.2621 62.7467 59.8888 61.36C59.5688 59.9733 59.1421 58.5867 58.6088 57.2C58.1288 55.8133 57.6488 54.4533 57.1688 53.12C56.3154 53.8133 55.7288 54.32 55.4088 54.64C55.0888 54.9067 54.8488 55.1467 54.6888 55.36C54.5821 55.52 54.4488 55.7067 54.2888 55.92C54.1821 56.1333 53.8621 56.5333 53.3288 57.12ZM53.8888 32.16C54.1554 30.3467 54.3421 28.64 54.4488 27.04C54.6088 25.3867 54.4221 24.2133 53.8888 23.52C53.7821 23.36 53.5421 23.2267 53.1688 23.12C52.8488 22.96 52.6088 22.88 52.4488 22.88C51.9154 22.88 51.5954 23.0133 51.4888 23.28C51.1154 23.8667 51.1954 24.96 51.7288 26.56C52.2621 28.1067 52.9821 29.9733 53.8888 32.16ZM95.3119 34.16C95.6852 34.2667 95.8185 34.5067 95.7119 34.88C95.6052 35.1467 95.4985 35.4133 95.3919 35.68C95.2852 35.9467 95.1785 36.24 95.0719 36.56C94.5919 37.8933 93.8452 39.84 92.8319 42.4C91.8719 44.96 90.7785 47.6267 89.5519 50.4C88.5385 52.6933 87.5785 54.7467 86.6719 56.56C85.7652 58.32 84.9385 59.84 84.1919 61.12C82.1119 64.5333 80.3252 66.24 78.8319 66.24C77.1252 66.24 75.7119 65.6 74.5919 64.32C72.1919 61.6 71.0985 55.5467 71.3119 46.16C71.4185 42.1067 71.7119 37.84 72.1919 33.36C72.6719 28.8267 73.1785 24.4533 73.7119 20.24C73.8719 18.6933 74.0319 17.2 74.1919 15.76C74.4052 14.2667 74.5652 12.8267 74.6719 11.44C73.3385 11.1733 72.0319 10.9333 70.7519 10.72C69.5252 10.4533 68.3519 10.2933 67.2319 10.24C66.1119 10.1867 65.0985 10.2667 64.1919 10.48C63.2852 10.64 62.5119 11.04 61.8719 11.68C61.6052 11.9467 61.3385 11.9467 61.0719 11.68C60.7519 11.36 60.7519 11.0933 61.0719 10.88C61.7652 10.1333 62.6185 9.62666 63.6319 9.36C64.6452 9.09333 65.7652 8.98666 66.9919 9.04C68.1652 9.04 69.4185 9.17333 70.7519 9.44C72.0852 9.65333 73.4452 9.92 74.8319 10.24C74.9919 8.58666 75.1252 7.06666 75.2319 5.68C75.3385 4.29333 75.3919 3.06666 75.3919 2C75.3919 1.52 75.4719 1.17333 75.6319 0.959995C75.7919 0.746662 75.9519 0.613328 76.1119 0.559996C76.7519 0.293329 77.6585 0.719997 78.8319 1.84C79.2585 2.21333 79.6052 2.56 79.8719 2.88C80.1385 3.14667 80.2719 3.30667 80.2719 3.36C80.3785 3.46666 80.4319 3.57333 80.4319 3.68C80.4319 4.85333 80.3785 6.08 80.2719 7.36C80.2185 8.58667 80.1385 9.89333 80.0319 11.28C81.2052 11.4933 82.3519 11.6533 83.4719 11.76C84.6452 11.8133 85.7385 11.76 86.7519 11.6C87.8185 11.44 88.8052 11.1733 89.7119 10.8C90.6719 10.3733 91.5519 9.78666 92.3519 9.04C92.6719 8.72 92.9385 8.72 93.1519 9.04C93.4719 9.25333 93.4719 9.52 93.1519 9.84C91.9785 11.0133 90.6719 11.8133 89.2319 12.24C87.7919 12.6667 86.2452 12.88 84.5919 12.88C83.8452 12.88 83.0719 12.8533 82.2719 12.8C81.4719 12.6933 80.6985 12.5867 79.9519 12.48C79.7385 14.6133 79.4985 16.8267 79.2319 19.12C78.9652 21.4133 78.6719 23.76 78.3519 26.16C77.9252 29.7867 77.4985 33.44 77.0719 37.12C76.6452 40.8 76.3785 44.2667 76.2719 47.52C76.1652 50.72 76.2452 53.5467 76.5119 56C76.7785 58.4 77.3652 60.1067 78.2719 61.12C78.8052 61.76 79.4985 62.08 80.3519 62.08C80.3519 62.08 80.4585 62.0267 80.6719 61.92C80.9385 61.8133 81.3119 61.44 81.7919 60.8C82.3252 60.1067 83.0185 59.0667 83.8719 57.68C84.7785 56.24 85.8719 54.24 87.1519 51.68C88.3785 49.1733 89.6052 46.5067 90.8319 43.68C92.0585 40.8533 93.0985 38.32 93.9519 36.08C94.3785 35.0133 94.5919 34.48 94.5919 34.48C94.6985 34.0533 94.9385 33.9467 95.3119 34.16ZM110.886 34.88C110.779 35.1467 110.672 35.4133 110.566 35.68C110.512 35.9467 110.432 36.24 110.326 36.56C109.792 37.8933 109.019 39.84 108.006 42.4C107.046 44.96 105.952 47.6267 104.726 50.4C103.766 52.6933 102.832 54.7467 101.926 56.56C101.019 58.32 100.166 59.84 99.3656 61.12C97.2856 64.5333 95.499 66.24 94.0056 66.24H93.9256C91.1523 65.5467 89.7656 62.1333 89.7656 56C89.7656 53.44 89.9256 50.7733 90.2456 48C90.619 45.2267 90.9923 42.64 91.3656 40.24C91.6323 38.6933 91.8456 37.3067 92.0056 36.08C92.1656 34.8 92.2456 33.8133 92.2456 33.12C92.2456 32.7467 92.459 32.56 92.8856 32.56C93.7923 32.6133 94.5923 32.72 95.2856 32.88C95.8723 32.9867 96.4056 33.1733 96.8856 33.44C97.419 33.7067 97.6856 34.0533 97.6856 34.48C97.6856 35.12 97.6056 36.16 97.4456 37.6C97.2856 38.9867 97.0723 40.6133 96.8056 42.48C96.539 44.5067 96.2723 46.64 96.0056 48.88C95.739 51.0667 95.5523 53.12 95.4456 55.04C95.339 56.48 95.259 57.6533 95.2056 58.56C95.2056 59.4133 95.2323 60.1067 95.2856 60.64C95.339 61.12 95.3923 61.4667 95.4456 61.68C95.499 61.8933 95.5523 62.0267 95.6056 62.08C95.659 62.08 95.819 61.9733 96.0856 61.76C96.4056 61.5467 96.8056 61.0933 97.2856 60.4C97.819 59.7067 98.4856 58.6667 99.2856 57.28C100.139 55.8933 101.152 54.0267 102.326 51.68C103.552 49.1733 104.779 46.5333 106.006 43.76C107.286 40.9333 108.352 38.4 109.206 36.16C109.312 35.8933 109.392 35.68 109.446 35.52C109.499 35.3067 109.552 35.12 109.606 34.96C109.659 34.7467 109.712 34.5867 109.766 34.48C109.872 34.0533 110.139 33.9467 110.566 34.16C110.939 34.2667 111.046 34.5067 110.886 34.88ZM98.0856 23.04C96.9656 23.04 96.0056 22.64 95.2056 21.84C94.459 21.04 94.0856 20.1067 94.0856 19.04C94.0856 17.92 94.459 16.96 95.2056 16.16C96.0056 15.36 96.9656 14.96 98.0856 14.96C99.2056 14.96 100.139 15.36 100.886 16.16C101.686 16.96 102.086 17.92 102.086 19.04C102.086 20.1067 101.686 21.04 100.886 21.84C100.139 22.64 99.2056 23.04 98.0856 23.04ZM132.68 34.16C133.053 34.2667 133.187 34.5067 133.08 34.88L132.44 36.56C131.96 37.8933 131.213 39.84 130.2 42.4C129.24 44.96 128.147 47.6267 126.92 50.4C125.96 52.6933 125.027 54.7467 124.12 56.56C123.213 58.32 122.36 59.84 121.56 61.12C119.48 64.5333 117.693 66.24 116.2 66.24C113.107 66.24 110.707 63.5733 109 58.24C108.253 56 107.693 53.36 107.32 50.32C106.947 47.28 106.76 44 106.76 40.48C106.76 35.68 107.107 31.0133 107.8 26.48C108.493 21.9467 109.453 17.8933 110.68 14.32C112.173 10.0533 113.933 6.82666 115.96 4.64C117.987 2.45333 120.28 1.35999 122.84 1.35999C124.44 1.35999 125.667 2.02666 126.52 3.36C127.213 4.64 127.56 6.21333 127.56 8.08C127.56 10.16 127.187 12.48 126.44 15.04C125.693 17.6 124.68 20 123.4 22.24C122.173 24.4267 120.707 26.2933 119 27.84C117.347 29.3333 115.613 30.08 113.8 30.08C113.427 30.08 113.24 29.8933 113.24 29.52C113.24 29.0933 113.427 28.88 113.8 28.88C114.92 28.88 116.093 28.2133 117.32 26.88C118.6 25.4933 119.853 23.5467 121.08 21.04C122.147 18.7467 123 16.3733 123.64 13.92C124.333 11.4133 124.68 9.28 124.68 7.52C124.68 6.29333 124.52 5.36 124.2 4.72C123.88 4.13333 123.453 3.84 122.92 3.84C121.373 3.84 119.907 4.88 118.52 6.96C117.187 8.98667 115.987 11.92 114.92 15.76C114.013 19.1733 113.293 23.0667 112.76 27.44C112.227 31.8133 111.96 36.1867 111.96 40.56C111.96 43.76 112.093 46.6933 112.36 49.36C112.627 52.0267 113 54.2933 113.48 56.16C114.013 58.0267 114.627 59.4933 115.32 60.56C116.067 61.5733 116.867 62.08 117.72 62.08C117.72 62.08 117.827 62.0267 118.04 61.92C118.307 61.8133 118.68 61.44 119.16 60.8C119.693 60.1067 120.387 59.0667 121.24 57.68C122.147 56.24 123.24 54.24 124.52 51.68C125.747 49.1733 126.973 46.5333 128.2 43.76C129.427 40.9333 130.467 38.4 131.32 36.16C131.427 35.8933 131.507 35.68 131.56 35.52C131.667 35.3067 131.747 35.12 131.8 34.96C131.853 34.7467 131.907 34.5867 131.96 34.48C132.067 34.0533 132.307 33.9467 132.68 34.16ZM163.988 34.32C164.201 33.9467 164.468 33.92 164.788 34.24C165.054 34.4 165.081 34.6933 164.868 35.12C160.601 40.1867 156.254 43.36 151.828 44.64C151.614 44.7467 151.401 44.8267 151.188 44.88C151.028 44.88 150.868 44.9067 150.707 44.96C150.494 47.36 150.068 49.68 149.428 51.92C148.841 54.1067 148.041 56.0533 147.028 57.76C146.014 59.4667 144.814 60.8267 143.428 61.84C142.041 62.8533 140.468 63.36 138.708 63.36C137.108 63.36 135.721 63.1467 134.548 62.72C133.428 62.2933 132.441 61.76 131.588 61.12C130.788 60.48 130.121 59.76 129.588 58.96C129.108 58.16 128.708 57.36 128.388 56.56C127.641 54.8 127.241 52.7733 127.188 50.48C127.188 48.1867 127.481 45.7867 128.068 43.28C128.494 41.7333 129.001 40.2667 129.588 38.88C130.228 37.44 130.921 36.1067 131.668 34.88C131.561 34.6133 131.428 34.3733 131.268 34.16C131.108 33.9467 130.974 33.7067 130.868 33.44C129.801 31.2533 129.054 29.12 128.628 27.04C128.254 24.9067 128.254 23.04 128.628 21.44C129.428 18.24 131.428 16.64 134.628 16.64C139.908 16.64 144.041 19.28 147.028 24.56C148.254 26.8 149.188 29.36 149.828 32.24C150.521 35.0667 150.868 38.08 150.868 41.28C150.868 41.4933 150.841 41.7067 150.788 41.92C150.788 42.1333 150.788 42.3467 150.788 42.56C151.054 42.5067 151.294 42.48 151.508 42.48C151.721 42.4267 151.934 42.3733 152.148 42.32C156.148 41.36 160.094 38.6933 163.988 34.32ZM145.988 45.28C144.174 45.12 142.361 44.5867 140.548 43.68C139.854 43.3067 139.161 42.9067 138.468 42.48C137.828 42.0533 137.214 41.5467 136.628 40.96C135.934 42.5067 135.348 44.2133 134.868 46.08C134.281 48.5867 133.934 50.8533 133.828 52.88C133.774 54.8533 134.014 56.48 134.548 57.76C135.348 59.7333 136.868 60.72 139.108 60.72C139.748 60.72 140.334 60.56 140.868 60.24C141.401 59.92 141.854 59.4933 142.228 58.96C142.654 58.4267 143.028 57.84 143.348 57.2C143.668 56.56 143.934 55.9467 144.148 55.36C145.108 52.5867 145.721 49.2267 145.988 45.28ZM143.268 26.24C142.948 25.3867 142.521 24.5333 141.988 23.68C141.508 22.8267 140.948 22.0533 140.308 21.36C139.668 20.6133 138.921 20.0267 138.068 19.6C137.214 19.12 136.281 18.88 135.268 18.88C133.028 18.88 131.668 19.8933 131.188 21.92C130.868 23.2 130.894 24.72 131.268 26.48C131.641 28.1867 132.334 29.9733 133.348 31.84C133.401 32.1067 133.508 32.2933 133.668 32.4C133.774 32.2933 133.854 32.2133 133.908 32.16C134.014 32.0533 134.121 31.9467 134.228 31.84C134.494 31.5733 134.761 31.5733 135.028 31.84C135.188 31.9467 135.481 32.1867 135.908 32.56C136.334 32.9333 136.761 33.36 137.188 33.84C137.614 34.32 137.988 34.8267 138.308 35.36C138.681 35.84 138.868 36.32 138.868 36.8C138.868 36.96 138.788 37.12 138.628 37.28C138.468 37.44 138.281 37.7067 138.068 38.08C139.348 39.3067 140.708 40.2667 142.148 40.96C143.428 41.7067 144.734 42.1867 146.068 42.4C146.068 39.36 145.828 36.4533 145.348 33.68C144.868 30.9067 144.174 28.4267 143.268 26.24ZM186.503 33.44C186.823 33.6 186.929 33.8667 186.823 34.24C185.703 36.8 183.889 39.3067 181.383 41.76C178.876 44.2133 176.156 46.64 173.223 49.04C173.916 50.6933 174.556 52.32 175.143 53.92C175.783 55.52 176.343 57.0933 176.823 58.64C177.143 59.7067 177.409 60.9867 177.623 62.48C177.889 63.9733 178.023 65.52 178.023 67.12C178.076 68.6667 177.969 70.1867 177.703 71.68C177.436 73.1733 176.956 74.4533 176.263 75.52C175.623 76.5867 174.743 77.36 173.623 77.84C172.503 78.3733 171.089 78.4533 169.383 78.08C167.249 77.6 165.463 76.7467 164.023 75.52C162.636 74.2933 161.596 72.8533 160.903 71.2C160.209 69.5467 159.809 67.76 159.703 65.84C159.649 63.92 159.916 62.0533 160.503 60.24C161.089 58.3733 161.943 56.64 163.063 55.04C164.236 53.3867 165.676 52 167.383 50.88L164.743 44.48C164.156 43.0933 163.623 41.8667 163.143 40.8C162.716 39.7333 162.316 38.7467 161.943 37.84C161.569 36.88 161.196 35.9467 160.823 35.04C160.503 34.1333 160.183 33.12 159.863 32C159.116 29.44 158.662 27.52 158.502 26.24C158.289 24.9067 158.502 23.76 159.143 22.8C159.996 21.52 161.463 20.88 163.543 20.88C164.716 20.88 165.623 21.3333 166.263 22.24C166.849 23.1467 167.223 24.08 167.383 25.04C167.596 26 167.623 27.04 167.463 28.16C167.356 29.0667 167.196 30 166.983 30.96C166.769 31.92 166.503 32.9067 166.183 33.92C166.396 34.4533 166.583 34.88 166.743 35.2C166.956 35.4667 167.143 35.7333 167.303 36C167.463 36.2667 167.623 36.56 167.783 36.88C167.996 37.2 168.236 37.6533 168.503 38.24C169.143 39.68 169.783 41.1467 170.423 42.64C171.116 44.08 171.783 45.5733 172.423 47.12C175.089 45.0933 177.596 42.9867 179.943 40.8C182.289 38.6133 184.236 36.24 185.783 33.68C185.996 33.36 186.236 33.28 186.503 33.44ZM164.423 57.12C163.196 58.4533 162.449 60.08 162.183 62C161.916 63.8667 161.943 65.7067 162.263 67.52C162.636 69.28 163.223 70.88 164.023 72.32C164.823 73.76 165.676 74.6933 166.583 75.12C167.543 75.6 168.449 75.44 169.303 74.64C170.209 73.8933 170.929 72.1867 171.463 69.52C171.729 68.24 171.809 66.9067 171.703 65.52C171.596 64.1333 171.356 62.7467 170.983 61.36C170.663 59.9733 170.236 58.5867 169.703 57.2C169.223 55.8133 168.743 54.4533 168.263 53.12C167.409 53.8133 166.823 54.32 166.503 54.64C166.183 54.9067 165.943 55.1467 165.783 55.36C165.676 55.52 165.543 55.7067 165.383 55.92C165.276 56.1333 164.956 56.5333 164.423 57.12ZM164.983 32.16C165.249 30.3467 165.436 28.64 165.543 27.04C165.703 25.3867 165.516 24.2133 164.983 23.52C164.876 23.36 164.636 23.2267 164.263 23.12C163.943 22.96 163.703 22.88 163.543 22.88C163.009 22.88 162.689 23.0133 162.583 23.28C162.209 23.8667 162.289 24.96 162.823 26.56C163.356 28.1067 164.076 29.9733 164.983 32.16Z" fill="#FAFAD2"/>
</svg>
