<svg width="312" height="83" viewBox="0 0 312 83" fill="none" xmlns="http://www.w3.org/2000/svg">
<path d="M45.68 56.12C46.2133 56.92 46.56 57.9333 46.72 59.16C46.88 60.3867 46.8533 61.72 46.64 63.16C46.48 64.6 46.1333 66.12 45.6 67.72C45.12 69.2667 44.48 70.7867 43.68 72.28C41.9733 75.4267 39.8933 77.88 37.44 79.64C34.4 81.7733 31.1467 82.84 27.68 82.84C23.2533 82.84 19.2533 81.88 15.68 79.96C12.16 78.04 9.17333 75.24 6.72 71.56C4.53333 68.3067 2.85333 64.52 1.68 60.2C0.56 55.88 0 51.2133 0 46.2C0 40.5467 0.72 35.0533 2.16 29.72C3.65333 24.3333 5.76 19.5333 8.48 15.32C11.36 10.7867 14.8 7.26666 18.8 4.75999C23.0133 2.03999 27.7067 0.679995 32.88 0.679995C37.4667 0.679995 41.0133 2.17333 43.52 5.16C45.7067 7.82666 46.8 11.16 46.8 15.16C46.8 17.2933 46.48 19.3733 45.84 21.4C45.2 23.4267 44.2933 25.24 43.12 26.84C41.7867 28.6533 40.24 30.04 38.48 31C36.7733 31.96 34.9067 32.44 32.88 32.44C32.5067 32.44 32.32 32.2267 32.32 31.8C32.32 31.4267 32.5067 31.24 32.88 31.24C34.4267 31.24 35.8667 30.7333 37.2 29.72C38.5867 28.7067 39.76 27.4 40.72 25.8C41.7333 24.1467 42.5067 22.3333 43.04 20.36C43.6267 18.3333 43.92 16.36 43.92 14.44C43.92 11.08 43.0667 8.33333 41.36 6.2C39.4933 3.85333 36.72 2.68 33.04 2.68C30.5867 2.68 28.3733 3.08 26.4 3.88C24.4267 4.68 22.64 5.72 21.04 7C19.4933 8.28 18.1333 9.72 16.96 11.32C15.84 12.8667 14.88 14.3867 14.08 15.88C12.0533 19.72 10.48 24.1467 9.36 29.16C8.24 34.1733 7.68 39.3733 7.68 44.76C7.68 49.6133 8.10667 54.1733 8.96 58.44C9.86667 62.7067 11.1467 66.4667 12.8 69.72C13.92 71.96 15.12 73.7733 16.4 75.16C17.7333 76.6 19.04 77.72 20.32 78.52C21.6533 79.32 22.96 79.8533 24.24 80.12C25.52 80.44 26.6933 80.6 27.76 80.6C28.56 80.6 29.44 80.4933 30.4 80.28C31.36 80.0667 32.3733 79.6667 33.44 79.08C34.5067 78.4933 35.5733 77.6667 36.64 76.6C37.7067 75.5867 38.7733 74.2533 39.84 72.6C41.28 70.2 42.32 67.8 42.96 65.4C43.6533 62.9467 44 60.8667 44 59.16C44 58.0933 43.8667 57.2133 43.6 56.52C43.44 56.1467 43.2533 55.9333 43.04 55.88C42.88 55.7733 42.7467 55.72 42.64 55.72C42.2667 55.72 42.08 55.5333 42.08 55.16C42.08 54.84 42.2667 54.6267 42.64 54.52C43.92 54.4133 44.9333 54.9467 45.68 56.12ZM87.1125 37.32C87.3258 36.9467 87.5925 36.92 87.9125 37.24C88.1792 37.4 88.2058 37.6933 87.9925 38.12C83.7258 43.1867 79.3792 46.36 74.9525 47.64C74.7392 47.7467 74.5258 47.8267 74.3125 47.88C74.1525 47.88 73.9925 47.9067 73.8325 47.96C73.6192 50.36 73.1925 52.68 72.5525 54.92C71.9658 57.1067 71.1658 59.0533 70.1525 60.76C69.1392 62.4667 67.9392 63.8267 66.5525 64.84C65.1658 65.8533 63.5925 66.36 61.8325 66.36C60.2325 66.36 58.8458 66.1467 57.6725 65.72C56.5525 65.2933 55.5658 64.76 54.7125 64.12C53.9125 63.48 53.2458 62.76 52.7125 61.96C52.2325 61.16 51.8325 60.36 51.5125 59.56C50.7658 57.8 50.3658 55.7733 50.3125 53.48C50.3125 51.1867 50.6058 48.7867 51.1925 46.28C51.6192 44.7333 52.1258 43.2667 52.7125 41.88C53.3525 40.44 54.0458 39.1067 54.7925 37.88C54.6858 37.6133 54.5525 37.3733 54.3925 37.16C54.2325 36.9467 54.0992 36.7067 53.9925 36.44C52.9258 34.2533 52.1792 32.12 51.7525 30.04C51.3792 27.9067 51.3792 26.04 51.7525 24.44C52.5525 21.24 54.5525 19.64 57.7525 19.64C63.0325 19.64 67.1658 22.28 70.1525 27.56C71.3792 29.8 72.3125 32.36 72.9525 35.24C73.6458 38.0667 73.9925 41.08 73.9925 44.28C73.9925 44.4933 73.9658 44.7067 73.9125 44.92C73.9125 45.1333 73.9125 45.3467 73.9125 45.56C74.1792 45.5067 74.4192 45.48 74.6325 45.48C74.8458 45.4267 75.0592 45.3733 75.2725 45.32C79.2725 44.36 83.2192 41.6933 87.1125 37.32ZM69.1125 48.28C67.2992 48.12 65.4858 47.5867 63.6725 46.68C62.9792 46.3067 62.2858 45.9067 61.5925 45.48C60.9525 45.0533 60.3392 44.5467 59.7525 43.96C59.0592 45.5067 58.4725 47.2133 57.9925 49.08C57.4058 51.5867 57.0592 53.8533 56.9525 55.88C56.8992 57.8533 57.1392 59.48 57.6725 60.76C58.4725 62.7333 59.9925 63.72 62.2325 63.72C62.8725 63.72 63.4592 63.56 63.9925 63.24C64.5258 62.92 64.9792 62.4933 65.3525 61.96C65.7792 61.4267 66.1525 60.84 66.4725 60.2C66.7925 59.56 67.0592 58.9467 67.2725 58.36C68.2325 55.5867 68.8458 52.2267 69.1125 48.28ZM66.3925 29.24C66.0725 28.3867 65.6458 27.5333 65.1125 26.68C64.6325 25.8267 64.0725 25.0533 63.4325 24.36C62.7925 23.6133 62.0458 23.0267 61.1925 22.6C60.3392 22.12 59.4058 21.88 58.3925 21.88C56.1525 21.88 54.7925 22.8933 54.3125 24.92C53.9925 26.2 54.0192 27.72 54.3925 29.48C54.7658 31.1867 55.4592 32.9733 56.4725 34.84C56.5258 35.1067 56.6325 35.2933 56.7925 35.4C56.8992 35.2933 56.9792 35.2133 57.0325 35.16C57.1392 35.0533 57.2458 34.9467 57.3525 34.84C57.6192 34.5733 57.8858 34.5733 58.1525 34.84C58.3125 34.9467 58.6058 35.1867 59.0325 35.56C59.4592 35.9333 59.8858 36.36 60.3125 36.84C60.7392 37.32 61.1125 37.8267 61.4325 38.36C61.8058 38.84 61.9925 39.32 61.9925 39.8C61.9925 39.96 61.9125 40.12 61.7525 40.28C61.5925 40.44 61.4058 40.7067 61.1925 41.08C62.4725 42.3067 63.8325 43.2667 65.2725 43.96C66.5525 44.7067 67.8592 45.1867 69.1925 45.4C69.1925 42.36 68.9525 39.4533 68.4725 36.68C67.9925 33.9067 67.2992 31.4267 66.3925 29.24ZM134.988 37.16C135.361 37.2667 135.494 37.5067 135.388 37.88L134.748 39.56C134.268 40.8933 133.521 42.84 132.508 45.4C131.548 47.96 130.454 50.6267 129.227 53.4C128.214 55.6933 127.254 57.7467 126.348 59.56C125.441 61.32 124.614 62.84 123.868 64.12C121.788 67.5333 120.001 69.24 118.508 69.24H118.348C115.574 68.5467 114.348 64.5733 114.668 57.32C114.774 54.3867 115.068 51.2933 115.548 48.04C116.028 44.7333 116.481 41.6667 116.908 38.84C117.068 37.7733 117.228 36.76 117.388 35.8C117.548 34.84 117.681 33.9867 117.788 33.24H117.708C116.801 33.6133 115.601 35.1333 114.108 37.8C112.614 40.4133 111.014 43.8267 109.308 48.04C108.561 49.8533 107.841 51.6667 107.148 53.48C106.508 55.24 105.948 56.8933 105.468 58.44C104.988 59.9333 104.588 61.2667 104.268 62.44C104.001 63.56 103.868 64.36 103.868 64.84V65C103.868 65.1067 103.868 65.1867 103.868 65.24C103.921 65.24 103.948 65.2667 103.948 65.32C104.054 65.5333 104.081 65.7467 104.028 65.96C103.974 66.0133 103.814 66.12 103.548 66.28C103.494 66.28 103.414 66.3067 103.307 66.36C103.201 66.36 103.014 66.36 102.747 66.36C102.321 66.36 101.814 66.3067 101.228 66.2C100.641 66.0933 100.081 65.8267 99.5475 65.4C99.5475 65.3467 99.5208 65.2933 99.4675 65.24C99.0942 64.5467 98.8542 63.48 98.7475 62.04C98.6408 60.6 98.6142 58.9467 98.6675 57.08C98.7208 55.2133 98.8275 53.2133 98.9875 51.08C99.2008 48.9467 99.3875 46.84 99.5475 44.76C99.6542 43.64 99.7342 42.5733 99.7875 41.56C99.8942 40.5467 99.9742 39.6133 100.028 38.76C99.8675 38.76 99.7342 38.7867 99.6275 38.84C98.7742 39.2133 97.6808 40.4667 96.3475 42.6C95.0142 44.7333 93.5742 47.48 92.0275 50.84C91.6008 51.9067 91.1742 52.9467 90.7475 53.96C90.3742 54.9733 90.0008 55.96 89.6275 56.92V64.84C89.6275 65.16 89.4408 65.3733 89.0675 65.48C89.0142 65.48 88.8542 65.5067 88.5875 65.56C88.3208 65.56 88.0008 65.56 87.6275 65.56C87.1475 65.56 86.6142 65.5067 86.0275 65.4C85.4408 65.2933 84.9608 65.08 84.5875 64.76C84.1608 64.3333 83.9475 63.8533 83.9475 63.32V32.52C83.9475 31.6667 84.4008 31.24 85.3075 31.24C85.6275 31.24 86.0275 31.3467 86.5075 31.56C87.0408 31.72 87.5208 31.96 87.9475 32.28C88.4275 32.5467 88.8275 32.8667 89.1475 33.24C89.4675 33.56 89.6275 33.88 89.6275 34.2V49.32C89.8942 48.68 90.1875 48.04 90.5075 47.4C90.8808 46.76 91.2542 46.0933 91.6275 45.4C91.9475 44.8133 92.4275 43.9867 93.0675 42.92C93.7608 41.8 94.5342 40.7067 95.3875 39.64C96.2408 38.52 97.1208 37.56 98.0275 36.76C98.9875 35.96 99.8942 35.56 100.748 35.56H100.988C101.254 35.56 101.628 35.5867 102.108 35.64C102.641 35.6933 103.148 35.8 103.628 35.96C104.161 36.12 104.614 36.3333 104.988 36.6C105.361 36.8133 105.548 37.1067 105.548 37.48C105.548 38.1733 105.468 39.2933 105.308 40.84C105.201 42.3867 105.068 44.12 104.908 46.04L104.188 53.72C104.774 51.9067 105.468 50.04 106.268 48.12C107.068 46.2 107.894 44.3867 108.748 42.68C109.601 40.92 110.454 39.2933 111.308 37.8C112.214 36.3067 113.068 35 113.868 33.88C115.788 31.2667 117.361 29.96 118.588 29.96H118.668C119.574 30.0133 120.374 30.12 121.068 30.28C121.654 30.3867 122.188 30.6 122.668 30.92C123.201 31.1867 123.468 31.5333 123.468 31.96C123.468 32.6 123.334 33.8 123.068 35.56C122.854 37.2667 122.588 39.32 122.268 41.72C121.894 44.12 121.521 46.6267 121.148 49.24C120.828 51.8533 120.534 54.3067 120.268 56.6C120.108 58.2533 120.001 59.6133 119.948 60.68C119.894 61.6933 119.868 62.52 119.868 63.16C119.868 63.8 119.894 64.2533 119.948 64.52C120.001 64.7867 120.054 64.9733 120.108 65.08C120.214 65.0267 120.401 64.8933 120.668 64.68C120.988 64.4133 121.388 63.9333 121.868 63.24C122.401 62.4933 123.068 61.4533 123.868 60.12C124.721 58.7333 125.708 56.92 126.828 54.68C128.054 52.1733 129.281 49.5333 130.508 46.76C131.734 43.9333 132.774 41.4 133.628 39.16C134.054 38.04 134.268 37.48 134.268 37.48C134.374 37.0533 134.614 36.9467 134.988 37.16ZM168.173 37.16C168.6 37.2667 168.706 37.5067 168.493 37.88C168.386 38.1467 168.28 38.44 168.173 38.76C168.12 39.0267 168.04 39.2933 167.933 39.56C167.4 40.9467 166.653 42.92 165.693 45.48C164.733 47.9867 163.64 50.6267 162.413 53.4C160.44 57.88 158.626 61.4533 156.973 64.12C154.946 67.5333 153.186 69.24 151.693 69.24H151.533C148.76 68.5467 147.373 65.1333 147.373 59C147.373 57.3467 147.453 55.64 147.613 53.88C147.773 52.0667 147.986 50.28 148.253 48.52C148.146 48.84 148.013 49.16 147.853 49.48C147.746 49.8 147.64 50.1467 147.533 50.52C144.386 59.16 140.706 63.48 136.493 63.48H136.333C134.733 63.0533 133.56 62.04 132.813 60.44C132.066 58.84 131.586 56.9733 131.373 54.84C131.213 52.6533 131.213 50.36 131.373 47.96C131.533 45.5067 131.72 43.2667 131.933 41.24C132.04 40.1733 132.12 39.2133 132.173 38.36C132.28 37.4533 132.333 36.7067 132.333 36.12C132.333 35.7467 132.52 35.56 132.893 35.56C132.893 35.56 133.16 35.5867 133.693 35.64C134.226 35.64 134.786 35.72 135.373 35.88C135.96 35.9867 136.493 36.1733 136.973 36.44C137.506 36.7067 137.773 37.08 137.773 37.56C137.773 37.9867 137.746 38.6 137.693 39.4C137.693 40.2 137.64 41.1067 137.533 42.12C137.426 43.8267 137.32 45.6933 137.213 47.72C137.106 49.6933 137.053 51.56 137.053 53.32C137.053 54.76 137.106 55.88 137.213 56.68C137.32 57.4267 137.426 58.0133 137.533 58.44C137.693 58.92 137.853 59.2133 138.013 59.32C139.186 59.32 140.28 58.7867 141.293 57.72C142.306 56.6 143.213 55.2133 144.013 53.56C144.866 51.8533 145.64 49.96 146.333 47.88C147.08 45.8 147.773 43.8 148.413 41.88C148.68 41.1333 148.893 40.4133 149.053 39.72C149.266 39.0267 149.506 38.36 149.773 37.72C149.826 37.4 149.853 37.1067 149.853 36.84C149.853 36.5733 149.853 36.3333 149.853 36.12C149.853 35.7467 150.066 35.56 150.493 35.56C151.4 35.6133 152.2 35.72 152.893 35.88C153.48 35.9867 154.013 36.2 154.493 36.52C155.026 36.7867 155.293 37.1333 155.293 37.56C155.293 38.1467 155.213 39.16 155.053 40.6C154.893 41.9867 154.68 43.6133 154.413 45.48C154.146 47.5067 153.88 49.64 153.613 51.88C153.346 54.0667 153.16 56.12 153.053 58.04C152.946 59.48 152.866 60.6533 152.813 61.56C152.813 62.4133 152.84 63.1067 152.893 63.64C152.946 64.12 153 64.4667 153.053 64.68C153.106 64.8933 153.16 65.0267 153.213 65.08C153.266 65.08 153.426 64.9733 153.693 64.76C154.013 64.5467 154.413 64.0933 154.893 63.4C155.426 62.7067 156.093 61.6667 156.893 60.28C157.746 58.8933 158.76 57.0267 159.933 54.68C161.213 52.1733 162.466 49.5333 163.693 46.76C164.92 43.9333 165.96 41.4 166.813 39.16C166.973 38.6267 167.106 38.2267 167.213 37.96C167.32 37.6933 167.373 37.5333 167.373 37.48C167.426 37.3733 167.533 37.2667 167.693 37.16C167.853 37.0533 168.013 37.0533 168.173 37.16ZM201.458 37.16C201.831 37.2667 201.965 37.5067 201.858 37.88L201.218 39.56C200.738 40.8933 199.991 42.84 198.978 45.4C198.018 47.96 196.925 50.6267 195.698 53.4C194.738 55.6933 193.805 57.7467 192.898 59.56C191.991 61.32 191.138 62.84 190.338 64.12C188.258 67.5333 186.471 69.24 184.978 69.24H184.898C182.071 68.4933 180.818 64.52 181.138 57.32C181.245 54.3867 181.538 51.2933 182.018 48.04C182.498 44.7333 182.978 41.6667 183.458 38.84C183.618 37.7733 183.751 36.76 183.858 35.8C184.018 34.84 184.151 33.9867 184.258 33.24H184.178C183.325 33.6133 182.151 35.1333 180.658 37.8C179.165 40.4133 177.538 43.8267 175.778 48.04C175.031 49.8533 174.338 51.6667 173.698 53.48C173.058 55.24 172.498 56.8933 172.018 58.44C171.538 59.9333 171.138 61.2667 170.818 62.44C170.551 63.56 170.418 64.36 170.418 64.84C170.418 65.2667 170.205 65.48 169.778 65.48C169.671 65.48 169.591 65.4533 169.538 65.4L169.458 65.48C169.351 65.48 169.165 65.5067 168.898 65.56C168.685 65.56 168.391 65.56 168.018 65.56C167.485 65.56 166.925 65.5067 166.338 65.4C165.805 65.2933 165.351 65.08 164.978 64.76C164.551 64.3867 164.338 63.9067 164.338 63.32V32.52C164.338 31.6667 164.791 31.24 165.698 31.24C166.018 31.24 166.418 31.3467 166.898 31.56C167.431 31.72 167.911 31.96 168.338 32.28C168.818 32.5467 169.218 32.8667 169.538 33.24C169.858 33.56 170.018 33.88 170.018 34.2C170.018 34.2533 170.018 34.9733 170.018 36.36C170.018 37.6933 169.991 39.4267 169.938 41.56C169.938 43.6933 169.938 46.04 169.938 48.6C169.938 51.16 169.938 53.64 169.938 56.04C170.525 54.0133 171.271 51.8 172.178 49.4C173.138 47 174.151 44.76 175.218 42.68C177.031 39.0533 178.738 36.12 180.338 33.88C182.258 31.2667 183.831 29.96 185.058 29.96H185.138C185.138 29.96 185.405 29.9867 185.938 30.04C186.471 30.04 187.031 30.12 187.618 30.28C188.205 30.3867 188.738 30.5733 189.218 30.84C189.751 31.1067 190.018 31.48 190.018 31.96C190.018 32.6 189.885 33.8 189.618 35.56C189.405 37.2667 189.111 39.32 188.738 41.72C188.365 44.12 187.991 46.6267 187.618 49.24C187.298 51.8533 187.005 54.3067 186.738 56.6C186.578 58.2533 186.471 59.6133 186.418 60.68C186.365 61.6933 186.338 62.52 186.338 63.16C186.338 63.8 186.365 64.2533 186.418 64.52C186.471 64.7867 186.525 64.9733 186.578 65.08C186.685 65.0267 186.871 64.8933 187.138 64.68C187.458 64.4133 187.858 63.9333 188.338 63.24C188.871 62.4933 189.538 61.4533 190.338 60.12C191.191 58.7333 192.178 56.92 193.298 54.68C194.525 52.1733 195.751 49.5333 196.978 46.76C198.258 43.9333 199.298 41.4 200.098 39.16C200.205 38.8933 200.285 38.68 200.338 38.52C200.445 38.3067 200.525 38.12 200.578 37.96C200.631 37.7467 200.685 37.5867 200.738 37.48C200.791 37.32 200.898 37.2133 201.058 37.16C201.218 37.0533 201.351 37.0533 201.458 37.16ZM217.057 37.88C216.951 38.1467 216.844 38.4133 216.738 38.68C216.684 38.9467 216.604 39.24 216.497 39.56C215.964 40.8933 215.191 42.84 214.178 45.4C213.218 47.96 212.124 50.6267 210.898 53.4C209.938 55.6933 209.004 57.7467 208.098 59.56C207.191 61.32 206.338 62.84 205.538 64.12C203.458 67.5333 201.671 69.24 200.178 69.24H200.098C197.324 68.5467 195.938 65.1333 195.938 59C195.938 56.44 196.098 53.7733 196.418 51C196.791 48.2267 197.164 45.64 197.538 43.24C197.804 41.6933 198.018 40.3067 198.178 39.08C198.338 37.8 198.418 36.8133 198.418 36.12C198.418 35.7467 198.631 35.56 199.058 35.56C199.964 35.6133 200.764 35.72 201.458 35.88C202.044 35.9867 202.578 36.1733 203.058 36.44C203.591 36.7067 203.858 37.0533 203.858 37.48C203.858 38.12 203.778 39.16 203.618 40.6C203.458 41.9867 203.244 43.6133 202.978 45.48C202.711 47.5067 202.444 49.64 202.178 51.88C201.911 54.0667 201.724 56.12 201.618 58.04C201.511 59.48 201.431 60.6533 201.378 61.56C201.378 62.4133 201.404 63.1067 201.458 63.64C201.511 64.12 201.564 64.4667 201.618 64.68C201.671 64.8933 201.724 65.0267 201.778 65.08C201.831 65.08 201.991 64.9733 202.258 64.76C202.578 64.5467 202.978 64.0933 203.458 63.4C203.991 62.7067 204.658 61.6667 205.458 60.28C206.311 58.8933 207.324 57.0267 208.498 54.68C209.724 52.1733 210.951 49.5333 212.178 46.76C213.458 43.9333 214.524 41.4 215.378 39.16C215.484 38.8933 215.564 38.68 215.618 38.52C215.671 38.3067 215.724 38.12 215.778 37.96C215.831 37.7467 215.884 37.5867 215.938 37.48C216.044 37.0533 216.311 36.9467 216.738 37.16C217.111 37.2667 217.218 37.5067 217.057 37.88ZM204.258 26.04C203.138 26.04 202.178 25.64 201.378 24.84C200.631 24.04 200.258 23.1067 200.258 22.04C200.258 20.92 200.631 19.96 201.378 19.16C202.178 18.36 203.138 17.96 204.258 17.96C205.378 17.96 206.311 18.36 207.058 19.16C207.858 19.96 208.258 20.92 208.258 22.04C208.258 23.1067 207.858 24.04 207.058 24.84C206.311 25.64 205.378 26.04 204.258 26.04ZM234.052 41.8C233.785 44.68 233.545 47.48 233.332 50.2C233.172 52.92 233.065 55.4 233.012 57.64C232.959 60.3067 232.985 62.1467 233.092 63.16C233.252 64.12 233.385 64.7333 233.492 65C233.652 64.9467 233.865 64.7867 234.132 64.52C234.452 64.2 234.852 63.6667 235.332 62.92C235.865 62.1733 236.505 61.16 237.252 59.88C238.052 58.5467 238.985 56.8133 240.052 54.68C241.279 52.1733 242.505 49.5333 243.732 46.76C245.012 43.9333 246.079 41.4 246.932 39.16C247.039 38.8933 247.119 38.68 247.172 38.52C247.225 38.3067 247.279 38.12 247.332 37.96C247.385 37.7467 247.439 37.5867 247.492 37.48C247.705 37.1067 247.972 37 248.292 37.16C248.719 37.2667 248.825 37.5067 248.612 37.88C248.505 38.1467 248.399 38.4133 248.292 38.68C248.239 38.9467 248.159 39.24 248.052 39.56C247.519 40.8933 246.772 42.84 245.812 45.4C244.852 47.96 243.759 50.6267 242.532 53.4C240.559 57.88 238.745 61.4533 237.092 64.12C235.065 67.5333 233.305 69.24 231.812 69.24H231.652C229.572 68.6533 228.319 65 227.892 58.28C227.785 57.2667 227.705 56.2267 227.652 55.16C227.652 54.0933 227.679 52.9467 227.732 51.72L226.852 53.24C225.625 55.1067 224.239 56.5467 222.692 57.56C221.199 58.52 219.652 59 218.052 59C215.759 59 213.999 58.1467 212.772 56.44C211.705 54.9467 211.172 52.9733 211.172 50.52C211.172 48.5467 211.492 46.5467 212.132 44.52C212.772 42.44 213.679 40.52 214.852 38.76C216.185 36.7867 217.679 35.2667 219.332 34.2C220.985 33.1333 222.692 32.6 224.452 32.6C226.532 32.6 228.105 33.2133 229.172 34.44C229.759 30.6 230.452 27.0267 231.252 23.72C232.105 20.36 233.065 17.4 234.132 14.84C236.959 7.85333 240.265 4.35999 244.052 4.35999C245.652 4.35999 246.879 5.02666 247.732 6.36C248.425 7.53333 248.772 9.10667 248.772 11.08C248.772 13.16 248.399 15.48 247.652 18.04C246.905 20.6 245.892 23 244.612 25.24C243.385 27.4267 241.945 29.2933 240.292 30.84C238.639 32.3333 236.905 33.08 235.092 33.08C234.825 34.84 234.612 36.4667 234.452 37.96C234.292 39.4533 234.159 40.7333 234.052 41.8ZM217.332 54.76C217.812 55.56 218.399 55.96 219.092 55.96C220.265 55.96 221.305 55.72 222.212 55.24C223.119 54.7067 223.919 54.0133 224.612 53.16C225.359 52.3067 225.999 51.32 226.532 50.2C227.065 49.08 227.519 47.9333 227.892 46.76C227.999 45.2667 228.105 43.7733 228.212 42.28C228.372 40.7867 228.532 39.2933 228.692 37.8C228.532 37.2667 228.345 36.84 228.132 36.52C227.652 35.88 226.985 35.5333 226.132 35.48C226.025 35.48 225.945 35.48 225.892 35.48C225.839 35.4267 225.785 35.4 225.732 35.4C224.292 35.4 223.065 35.8533 222.052 36.76C221.039 37.6133 220.239 38.4933 219.652 39.4C218.852 40.6267 218.212 41.9867 217.732 43.48C217.252 44.9733 216.905 46.44 216.692 47.88C216.532 49.2667 216.505 50.5733 216.612 51.8C216.719 53.0267 216.959 54.0133 217.332 54.76ZM244.132 6.84C243.385 6.84 242.719 7.24 242.132 8.04C241.545 8.84 241.039 9.66666 240.612 10.52C239.972 11.8 239.385 13.2933 238.852 15C238.319 16.6533 237.839 18.44 237.412 20.36C236.985 22.2267 236.585 24.1467 236.212 26.12C235.839 28.0933 235.519 30.0133 235.252 31.88C236.319 31.7733 237.465 31.0533 238.692 29.72C239.919 28.3333 241.119 26.44 242.292 24.04C243.359 21.7467 244.212 19.3733 244.852 16.92C245.545 14.4133 245.892 12.28 245.892 10.52C245.892 9.29333 245.732 8.36 245.412 7.72C245.092 7.13333 244.665 6.84 244.132 6.84ZM279.694 37.16C280.068 37.2667 280.201 37.5067 280.094 37.88C279.988 38.1467 279.881 38.4133 279.774 38.68C279.668 38.9467 279.561 39.24 279.454 39.56C278.974 40.8933 278.228 42.84 277.214 45.4C276.254 47.96 275.161 50.6267 273.934 53.4C272.921 55.6933 271.961 57.7467 271.054 59.56C270.201 61.32 269.374 62.84 268.574 64.12C266.494 67.5333 264.708 69.24 263.214 69.24H263.054C260.281 68.5467 258.894 65.1333 258.894 59C258.894 57.7733 258.948 56.5467 259.054 55.32C259.161 54.04 259.294 52.76 259.454 51.48L258.414 53.24C257.188 55.1067 255.801 56.5467 254.254 57.56C252.761 58.52 251.214 59 249.614 59C247.321 59 245.561 58.1467 244.334 56.44C243.268 54.9467 242.734 52.9733 242.734 50.52C242.734 48.5467 243.054 46.5467 243.694 44.52C244.334 42.44 245.241 40.52 246.414 38.76C247.748 36.7867 249.241 35.2667 250.894 34.2C252.548 33.1333 254.254 32.6 256.014 32.6C258.201 32.6 259.828 33.2667 260.894 34.6L261.614 35.72C261.668 35.6667 261.694 35.64 261.694 35.64C261.748 35.5867 261.774 35.56 261.774 35.56H262.094C262.148 35.56 262.441 35.5867 262.974 35.64C263.508 35.6933 264.041 35.8 264.574 35.96C265.161 36.0667 265.694 36.2533 266.174 36.52C266.654 36.7333 266.894 37.0533 266.894 37.48C266.894 38.12 266.814 39.16 266.654 40.6C266.494 41.9867 266.281 43.6133 266.014 45.48C265.748 47.5067 265.481 49.64 265.214 51.88C264.948 54.0667 264.734 56.12 264.574 58.04C264.468 59.48 264.414 60.6533 264.414 61.56C264.414 62.4133 264.441 63.1067 264.494 63.64C264.548 64.12 264.601 64.4667 264.654 64.68C264.708 64.8933 264.761 65.0267 264.814 65.08C264.868 65.08 265.028 64.9733 265.294 64.76C265.561 64.5467 265.961 64.0933 266.494 63.4C267.028 62.7067 267.694 61.6667 268.494 60.28C269.348 58.8933 270.361 57.0267 271.534 54.68C272.761 52.1733 273.988 49.5333 275.214 46.76C276.494 43.9333 277.534 41.4 278.334 39.16C278.761 38.04 278.974 37.48 278.974 37.48C279.081 37.0533 279.321 36.9467 279.694 37.16ZM248.894 54.76C249.374 55.56 249.961 55.96 250.654 55.96C252.201 55.96 253.534 55.5067 254.654 54.6C255.828 53.6933 256.788 52.5467 257.534 51.16C258.334 49.72 258.974 48.1733 259.454 46.52C259.988 44.8667 260.388 43.32 260.654 41.88C260.814 39.5333 260.494 37.7467 259.694 36.52C259.214 35.88 258.548 35.5333 257.694 35.48C257.588 35.48 257.508 35.48 257.454 35.48C257.401 35.4267 257.321 35.4 257.214 35.4C255.828 35.4 254.628 35.8533 253.614 36.76C252.601 37.6133 251.801 38.4933 251.214 39.4C250.414 40.6267 249.774 41.9867 249.294 43.48C248.814 44.9733 248.468 46.44 248.254 47.88C248.094 49.2667 248.068 50.5733 248.174 51.8C248.281 53.0267 248.521 54.0133 248.894 54.76ZM297.021 41.8C296.754 44.68 296.514 47.48 296.301 50.2C296.141 52.92 296.034 55.4 295.981 57.64C295.927 60.3067 295.954 62.1467 296.061 63.16C296.221 64.12 296.354 64.7333 296.461 65C296.621 64.9467 296.834 64.7867 297.101 64.52C297.421 64.2 297.821 63.6667 298.301 62.92C298.834 62.1733 299.474 61.16 300.221 59.88C301.021 58.5467 301.954 56.8133 303.021 54.68C304.247 52.1733 305.474 49.5333 306.701 46.76C307.981 43.9333 309.047 41.4 309.901 39.16C310.007 38.8933 310.087 38.68 310.141 38.52C310.194 38.3067 310.247 38.12 310.301 37.96C310.354 37.7467 310.407 37.5867 310.461 37.48C310.674 37.1067 310.941 37 311.261 37.16C311.687 37.2667 311.794 37.5067 311.581 37.88C311.474 38.1467 311.367 38.4133 311.261 38.68C311.207 38.9467 311.127 39.24 311.021 39.56C310.487 40.8933 309.741 42.84 308.781 45.4C307.821 47.96 306.727 50.6267 305.501 53.4C303.527 57.88 301.714 61.4533 300.061 64.12C298.034 67.5333 296.274 69.24 294.781 69.24H294.621C292.541 68.6533 291.287 65 290.861 58.28C290.754 57.2667 290.674 56.2267 290.621 55.16C290.621 54.0933 290.647 52.9467 290.701 51.72L289.821 53.24C288.594 55.1067 287.207 56.5467 285.661 57.56C284.167 58.52 282.621 59 281.021 59C278.727 59 276.967 58.1467 275.741 56.44C274.674 54.9467 274.141 52.9733 274.141 50.52C274.141 48.5467 274.461 46.5467 275.101 44.52C275.741 42.44 276.647 40.52 277.821 38.76C279.154 36.7867 280.647 35.2667 282.301 34.2C283.954 33.1333 285.661 32.6 287.421 32.6C289.501 32.6 291.074 33.2133 292.141 34.44C292.727 30.6 293.421 27.0267 294.221 23.72C295.074 20.36 296.034 17.4 297.101 14.84C299.927 7.85333 303.234 4.35999 307.021 4.35999C308.621 4.35999 309.847 5.02666 310.701 6.36C311.394 7.53333 311.741 9.10667 311.741 11.08C311.741 13.16 311.367 15.48 310.621 18.04C309.874 20.6 308.861 23 307.581 25.24C306.354 27.4267 304.914 29.2933 303.261 30.84C301.607 32.3333 299.874 33.08 298.061 33.08C297.794 34.84 297.581 36.4667 297.421 37.96C297.261 39.4533 297.127 40.7333 297.021 41.8ZM280.301 54.76C280.781 55.56 281.367 55.96 282.061 55.96C283.234 55.96 284.274 55.72 285.181 55.24C286.087 54.7067 286.887 54.0133 287.581 53.16C288.327 52.3067 288.967 51.32 289.501 50.2C290.034 49.08 290.487 47.9333 290.861 46.76C290.967 45.2667 291.074 43.7733 291.181 42.28C291.341 40.7867 291.501 39.2933 291.661 37.8C291.501 37.2667 291.314 36.84 291.101 36.52C290.621 35.88 289.954 35.5333 289.101 35.48C288.994 35.48 288.914 35.48 288.861 35.48C288.807 35.4267 288.754 35.4 288.701 35.4C287.261 35.4 286.034 35.8533 285.021 36.76C284.007 37.6133 283.207 38.4933 282.621 39.4C281.821 40.6267 281.181 41.9867 280.701 43.48C280.221 44.9733 279.874 46.44 279.661 47.88C279.501 49.2667 279.474 50.5733 279.581 51.8C279.687 53.0267 279.927 54.0133 280.301 54.76ZM307.101 6.84C306.354 6.84 305.687 7.24 305.101 8.04C304.514 8.84 304.007 9.66666 303.581 10.52C302.941 11.8 302.354 13.2933 301.821 15C301.287 16.6533 300.807 18.44 300.381 20.36C299.954 22.2267 299.554 24.1467 299.181 26.12C298.807 28.0933 298.487 30.0133 298.221 31.88C299.287 31.7733 300.434 31.0533 301.661 29.72C302.887 28.3333 304.087 26.44 305.261 24.04C306.327 21.7467 307.181 19.3733 307.821 16.92C308.514 14.4133 308.861 12.28 308.861 10.52C308.861 9.29333 308.701 8.36 308.381 7.72C308.061 7.13333 307.634 6.84 307.101 6.84Z" fill="#FAFAD2"/>
</svg>
