<svg width="35" height="34" viewBox="0 0 35 34" fill="none" xmlns="http://www.w3.org/2000/svg">
<path d="M31.6295 1.74787C32.0135 1.75723 32.3686 1.95353 32.5807 2.27383C32.777 2.58626 32.8062 2.97586 32.659 3.31417L20.7653 31.2858C20.6207 31.7234 20.2228 32.0275 19.7628 32.0523C19.3028 32.077 18.8746 31.817 18.6843 31.3978L13.5712 22.4471V22.4468C13.1928 21.7608 12.641 21.1858 11.9712 20.7797L3.02047 15.6778H3.0201C2.65035 15.4707 2.42933 15.0721 2.44956 14.6484C2.47354 14.2172 2.74363 13.8385 3.14335 13.6752L31.1706 1.84861C31.3145 1.78305 31.471 1.74859 31.6291 1.74784L31.6295 1.74787ZM31.6291 0.0695601C31.2437 0.0661886 30.8619 0.146356 30.5105 0.304442L2.41615 12.131C1.76956 12.4015 1.24807 12.905 0.955184 13.5415C0.661859 14.1779 0.618406 14.901 0.832689 15.5681C1.04735 16.2353 1.50475 16.7976 2.11384 17.1438L11.0645 22.2345C11.5013 22.4866 11.8643 22.8492 12.1165 23.286L17.2296 32.2367V32.2371C17.5802 32.8447 18.1451 33.2999 18.8139 33.5134C19.4822 33.727 20.2064 33.6835 20.8443 33.3913C21.4826 33.0995 21.9888 32.5803 22.2645 31.9348L34.1582 3.96314V3.96351C34.5175 3.10639 34.4298 2.12719 33.9237 1.34799C33.4176 0.568413 32.5586 0.0900456 31.6296 0.0698103L31.6291 0.0695601Z" fill="#272716"/>
<path d="M15.753 19.4935C15.5298 19.4958 15.3155 19.4066 15.16 19.247C14.8326 18.9196 14.8326 18.3888 15.16 18.0614L24.3793 8.88668C24.7068 8.55926 25.2376 8.55926 25.5654 8.88668C25.7253 9.04252 25.8152 9.25642 25.8152 9.47969C25.8152 9.70296 25.7253 9.91687 25.5654 10.0727L16.346 19.2474V19.2471C16.1895 19.4055 15.9755 19.4943 15.753 19.4936L15.753 19.4935Z" fill="#272716"/>
</svg>
